<svg width="20" height="21" viewBox="0 0 20 21" fill="none" xmlns="http://www.w3.org/2000/svg">
<path fill-rule="evenodd" clip-rule="evenodd" d="M4 1.5C4.19891 1.5 4.38968 1.57902 4.53033 1.71967C4.67098 1.86032 4.75 2.05109 4.75 2.25V3.75H6.25C6.44891 3.75 6.63968 3.82902 6.78033 3.96967C6.92098 4.11032 7 4.30109 7 4.5C7 4.69891 6.92098 4.88968 6.78033 5.03033C6.63968 5.17098 6.44891 5.25 6.25 5.25H4.75V6.75C4.75 6.94891 4.67098 7.13968 4.53033 7.28033C4.38968 7.42098 4.19891 7.5 4 7.5C3.80109 7.5 3.61032 7.42098 3.46967 7.28033C3.32902 7.13968 3.25 6.94891 3.25 6.75V5.25H1.75C1.55109 5.25 1.36032 5.17098 1.21967 5.03033C1.07902 4.88968 1 4.69891 1 4.5C1 4.30109 1.07902 4.11032 1.21967 3.96967C1.36032 3.82902 1.55109 3.75 1.75 3.75H3.25V2.25C3.25 2.05109 3.32902 1.86032 3.46967 1.71967C3.61032 1.57902 3.80109 1.5 4 1.5ZM9.25 2C9.05109 2 8.86032 2.07902 8.71967 2.21967C8.57902 2.36032 8.5 2.55109 8.5 2.75C8.5 2.94891 8.57902 3.13968 8.71967 3.28033C8.86032 3.42098 9.05109 3.5 9.25 3.5H14.75C15.3467 3.5 15.919 3.73705 16.341 4.15901C16.7629 4.58097 17 5.15326 17 5.75V11.25H12.25C11.8522 11.25 11.4706 11.408 11.1893 11.6893C10.908 11.9706 10.75 12.3522 10.75 12.75V17.5H5.25C4.65326 17.5 4.08097 17.2629 3.65901 16.841C3.23705 16.419 3 15.8467 3 15.25V9.75C3 9.55109 2.92098 9.36032 2.78033 9.21967C2.63968 9.07902 2.44891 9 2.25 9C2.05109 9 1.86032 9.07902 1.71967 9.21967C1.57902 9.36032 1.5 9.55109 1.5 9.75V15.25C1.5 15.7425 1.597 16.2301 1.78545 16.6851C1.97391 17.14 2.25013 17.5534 2.59835 17.9017C2.94657 18.2499 3.35997 18.5261 3.81494 18.7145C4.26991 18.903 4.75754 19 5.25 19H10.986C11.715 19 12.414 18.71 12.93 18.195L17.695 13.43C18.2104 12.9143 18.5 12.2151 18.5 11.486V5.75C18.5 5.25754 18.403 4.76991 18.2145 4.31494C18.0261 3.85997 17.7499 3.44657 17.4017 3.09835C17.0534 2.75013 16.64 2.47391 16.1851 2.28545C15.7301 2.097 15.2425 2 14.75 2H9.25ZM12.25 16.753L16.253 12.75H12.25V16.753Z" fill="#1D1C1D" fill-opacity="0.7"/>
</svg>
