<svg width="18" height="18" viewBox="0 0 18 18" fill="none" xmlns="http://www.w3.org/2000/svg">
<path fill-rule="evenodd" clip-rule="evenodd" d="M8.9999 1.80005C8.16447 1.80005 7.36326 2.13192 6.77252 2.72266C6.18178 3.3134 5.8499 4.11462 5.8499 4.95005V7.65005C5.8499 8.06371 5.93138 8.47333 6.08968 8.8555C6.24798 9.23768 6.48001 9.58493 6.77252 9.87743C7.06502 10.1699 7.41227 10.402 7.79445 10.5603C8.17662 10.7186 8.58624 10.8 8.9999 10.8C9.41357 10.8 9.82318 10.7186 10.2054 10.5603C10.5875 10.402 10.9348 10.1699 11.2273 9.87743C11.5198 9.58493 11.7518 9.23768 11.9101 8.8555C12.0684 8.47333 12.1499 8.06371 12.1499 7.65005V4.95005C12.1499 4.11462 11.818 3.3134 11.2273 2.72266C10.6365 2.13192 9.83533 1.80005 8.9999 1.80005ZM7.1999 4.95005C7.1999 4.47266 7.38954 4.01482 7.72711 3.67726C8.06468 3.33969 8.52251 3.15005 8.9999 3.15005C9.47729 3.15005 9.93513 3.33969 10.2727 3.67726C10.6103 4.01482 10.7999 4.47266 10.7999 4.95005V7.65005C10.7999 8.12744 10.6103 8.58527 10.2727 8.92284C9.93513 9.26041 9.47729 9.45005 8.9999 9.45005C8.52251 9.45005 8.06468 9.26041 7.72711 8.92284C7.38954 8.58527 7.1999 8.12744 7.1999 7.65005V4.95005ZM4.4999 7.42505C4.4999 7.24603 4.42879 7.07434 4.3022 6.94775C4.17561 6.82116 4.00392 6.75005 3.8249 6.75005C3.64588 6.75005 3.47419 6.82116 3.34761 6.94775C3.22102 7.07434 3.1499 7.24603 3.1499 7.42505V7.65005C3.15001 9.08469 3.67721 10.4693 4.6313 11.5407C5.58539 12.6121 6.89987 13.2956 8.3249 13.4613V14.85H6.9749C6.79588 14.85 6.62419 14.9212 6.4976 15.0478C6.37102 15.1743 6.2999 15.346 6.2999 15.525C6.2999 15.7041 6.37102 15.8758 6.4976 16.0023C6.62419 16.1289 6.79588 16.2 6.9749 16.2H11.0249C11.2039 16.2 11.3756 16.1289 11.5022 16.0023C11.6288 15.8758 11.6999 15.7041 11.6999 15.525C11.6999 15.346 11.6288 15.1743 11.5022 15.0478C11.3756 14.9212 11.2039 14.85 11.0249 14.85H9.6749V13.4613C11.0999 13.2956 12.4144 12.6121 13.3685 11.5407C14.3226 10.4693 14.8498 9.08469 14.8499 7.65005V7.42505C14.8499 7.24603 14.7788 7.07434 14.6522 6.94775C14.5256 6.82116 14.3539 6.75005 14.1749 6.75005C13.9959 6.75005 13.8242 6.82116 13.6976 6.94775C13.571 7.07434 13.4999 7.24603 13.4999 7.42505V7.65005C13.4999 8.84352 13.0258 9.98812 12.1819 10.832C11.338 11.6759 10.1934 12.15 8.9999 12.15C7.80643 12.15 6.66184 11.6759 5.81792 10.832C4.97401 9.98812 4.4999 8.84352 4.4999 7.65005V7.42505Z" fill="#1D1C1D" fill-opacity="0.7"/>
</svg>
