<svg width="21" height="21" viewBox="0 0 21 21" fill="none" xmlns="http://www.w3.org/2000/svg">
<path fill-rule="evenodd" clip-rule="evenodd" d="M7.85001 10.5596C7.85001 9.76392 8.16608 9.00086 8.72869 8.43825C9.29129 7.87564 10.0544 7.55957 10.85 7.55957C11.6457 7.55957 12.4087 7.87564 12.9713 8.43825C13.5339 9.00086 13.85 9.76392 13.85 10.5596C13.85 11.3552 13.5339 12.1183 12.9713 12.6809C12.4087 13.2435 11.6457 13.5596 10.85 13.5596C10.0544 13.5596 9.29129 13.2435 8.72869 12.6809C8.16608 12.1183 7.85001 11.3552 7.85001 10.5596ZM10.85 6.05957C10.2591 6.05957 9.6739 6.17597 9.12793 6.40211C8.58197 6.62826 8.08589 6.95973 7.66803 7.37759C7.25016 7.79545 6.91869 8.29153 6.69255 8.83749C6.4664 9.38346 6.35001 9.96862 6.35001 10.5596C6.35001 11.1505 6.4664 11.7357 6.69255 12.2816C6.91869 12.8276 7.25016 13.3237 7.66803 13.7416C8.08589 14.1594 8.58197 14.4909 9.12793 14.717C9.6739 14.9432 10.2591 15.0596 10.85 15.0596C12.0435 15.0596 13.1881 14.5855 14.032 13.7416C14.8759 12.8976 15.35 11.753 15.35 10.5596C15.35 9.3661 14.8759 8.2215 14.032 7.37759C13.1881 6.53368 12.0435 6.05957 10.85 6.05957Z" fill="#616061"/>
</svg>
