<svg width="21" height="20" viewBox="0 0 21 20" fill="none" xmlns="http://www.w3.org/2000/svg">
<path d="M3.38135 3.33337H4.40699V16.6667H3.38135V3.33337Z" fill="#BBBBBB"/>
<path d="M13.8531 4.35902C14.1363 4.35902 14.3659 4.58862 14.3659 4.87183C14.3659 5.15506 14.1363 5.38466 13.8531 5.38466H6.45827C6.17505 5.38466 5.94545 5.15506 5.94545 4.87183C5.94545 4.58862 6.17505 4.35902 6.45827 4.35902H13.8531Z" fill="#BBBBBB"/>
<path d="M13.8489 14.6155C14.1322 14.6155 14.3618 14.845 14.3618 15.1282C14.3618 15.4115 14.1322 15.641 13.8489 15.641H6.45827C6.17505 15.641 5.94545 15.4115 5.94545 15.1282C5.94545 14.845 6.17505 14.6155 6.45827 14.6155H13.8489Z" fill="#BBBBBB"/>
<path d="M16.2018 9.48721C16.4851 9.48721 16.7147 9.71679 16.7147 10C16.7147 10.2833 16.4851 10.5129 16.2018 10.5129H6.45827C6.17505 10.5129 5.94545 10.2833 5.94545 10C5.94545 9.71679 6.17505 9.48721 6.45827 9.48721H16.2018Z" fill="#BBBBBB"/>
</svg>
