<svg width="20" height="20" viewBox="0 0 20 20" fill="none" xmlns="http://www.w3.org/2000/svg">
<path d="M3.3335 3.33337H4.35914V16.6667H3.3335V3.33337Z" fill="#1D1C1D"/>
<path d="M13.8052 4.35902C14.0885 4.35902 14.3181 4.58862 14.3181 4.87183C14.3181 5.15506 14.0885 5.38466 13.8052 5.38466H6.41042C6.1272 5.38466 5.8976 5.15506 5.8976 4.87183C5.8976 4.58862 6.1272 4.35902 6.41042 4.35902H13.8052Z" fill="#1D1C1D"/>
<path d="M13.8011 14.6155C14.0843 14.6155 14.3139 14.845 14.3139 15.1282C14.3139 15.4115 14.0843 15.641 13.8011 15.641H6.41042C6.1272 15.641 5.8976 15.4115 5.8976 15.1282C5.8976 14.845 6.1272 14.6155 6.41042 14.6155H13.8011Z" fill="#1D1C1D"/>
<path d="M16.154 9.48721C16.4372 9.48721 16.6668 9.71679 16.6668 10C16.6668 10.2833 16.4372 10.5129 16.154 10.5129H6.41042C6.1272 10.5129 5.8976 10.2833 5.8976 10C5.8976 9.71679 6.1272 9.48721 6.41042 9.48721H16.154Z" fill="#1D1C1D"/>
</svg>
