<svg width="18" height="18" viewBox="0 0 18 18" fill="none" xmlns="http://www.w3.org/2000/svg">
<path fill-rule="evenodd" clip-rule="evenodd" d="M3.6001 2.47505C3.6001 2.29603 3.67121 2.12434 3.7978 1.99775C3.92439 1.87116 4.09608 1.80005 4.2751 1.80005H9.9838C10.8449 1.80026 11.6761 2.11638 12.3197 2.6885C12.9633 3.26062 13.3747 4.04897 13.4758 4.90415C13.4943 5.0205 13.5024 5.13826 13.5001 5.25605L13.501 5.31635C13.5016 5.86026 13.3758 6.39687 13.1336 6.88386C12.8913 7.37085 12.5392 7.79489 12.1051 8.12255C13.0246 8.45718 13.7969 9.1049 14.2865 9.95208C14.776 10.7993 14.9517 11.7918 14.7826 12.7555C14.6134 13.7193 14.1103 14.5927 13.3615 15.2226C12.6128 15.8524 11.6661 16.1985 10.6876 16.2H4.2751C4.09608 16.2 3.92439 16.1289 3.7978 16.0023C3.67121 15.8758 3.6001 15.7041 3.6001 15.525V8.55005C3.59999 8.48359 3.60969 8.41747 3.6289 8.35385C3.60978 8.29051 3.60008 8.22471 3.6001 8.15855V2.47505ZM5.8501 7.48355H9.0838C9.33879 7.48355 9.59129 7.43332 9.82687 7.33574C10.0625 7.23816 10.2765 7.09513 10.4568 6.91482C10.6371 6.73452 10.7802 6.52046 10.8777 6.28487C10.9753 6.04929 11.0255 5.79679 11.0255 5.5418C11.0255 5.2868 10.9753 5.03431 10.8777 4.79872C10.7802 4.56314 10.6371 4.34908 10.4568 4.16877C10.2765 3.98847 10.0625 3.84544 9.82687 3.74786C9.59129 3.65027 9.33879 3.60005 9.0838 3.60005H5.8501V7.48355ZM9.6751 9.22505H5.8501V14.175H9.6751C10.3315 14.175 10.961 13.9143 11.4252 13.4501C11.8893 12.986 12.1501 12.3565 12.1501 11.7C12.1501 11.0436 11.8893 10.4141 11.4252 9.94996C10.961 9.48581 10.3315 9.22505 9.6751 9.22505Z" fill="#1D1C1D"/>
</svg>
