<svg width="64" height="59" viewBox="0 0 64 59" fill="none" xmlns="http://www.w3.org/2000/svg">
<path d="M46.3169 12.0427C43.888 12.0399 41.485 12.5466 39.2597 13.5308C37.0344 14.5149 35.0353 15.955 33.3887 17.7602C35.2112 20.0305 36.496 22.6921 37.1448 25.5415C38.1152 23.4304 39.7693 21.7174 41.8335 20.6857C43.8977 19.6541 46.2484 19.3656 48.4968 19.8679C50.7452 20.3703 52.7566 21.6334 54.1985 23.4485C55.6404 25.2635 56.4263 27.5217 56.4263 29.8496C56.4263 32.1775 55.6404 34.4357 54.1985 36.2507C52.7566 38.0657 50.7452 39.3289 48.4968 39.8312C46.2484 40.3336 43.8977 40.0451 41.8335 39.0135C39.7693 37.9818 38.1152 36.2688 37.1448 34.1577C36.2235 32.3401 36.1687 30.2599 36.187 29.4516C36.187 29.3449 36.1992 29.2464 36.2012 29.1295C36.2012 29.1069 36.2012 29.0946 36.2012 29.0946C36.2884 25.7528 34.9228 22.7351 33.6383 20.6631L32.4207 18.909C31.8607 18.1808 31.469 17.7705 31.469 17.7705C29.0648 15.1413 25.9322 13.3062 22.4804 12.5047C19.0286 11.7033 15.4179 11.9726 12.1199 13.2777C8.82182 14.5828 5.98968 16.863 3.99325 19.8204C1.99681 22.7779 0.928864 26.2752 0.928864 29.8557C0.928864 33.4363 1.99681 36.9336 3.99325 39.8911C5.98968 42.8485 8.82182 45.1287 12.1199 46.4337C15.4179 47.7388 19.0286 48.0082 22.4804 47.2067C25.9322 46.4053 29.0648 44.5701 31.469 41.941C29.6465 39.6707 28.3617 37.0091 27.7129 34.1597C26.7425 36.2708 25.0884 37.9839 23.0242 39.0155C20.96 40.0472 18.6094 40.3357 16.361 39.8333C14.1126 39.3309 12.1011 38.0678 10.6592 36.2528C9.21732 34.4377 8.4314 32.1795 8.4314 29.8516C8.4314 27.5237 9.21732 25.2655 10.6592 23.4505C12.1011 21.6355 14.1126 20.3723 16.361 19.87C18.6094 19.3676 20.96 19.6561 23.0242 20.6878C25.0884 21.7194 26.7425 23.4324 27.7129 25.5435C28.6322 27.3611 28.689 29.4413 28.6687 30.2496C28.6687 30.3563 28.6687 30.4548 28.6545 30.5717C28.6545 30.5943 28.6545 30.6066 28.6545 30.6066C28.5672 33.9484 29.9309 36.9662 31.2174 39.0382L32.4349 40.7922C32.995 41.5205 33.3887 41.9308 33.3887 41.9308C35.3745 44.1023 37.864 45.7395 40.6326 46.6944C43.4011 47.6494 46.3613 47.8921 49.2459 47.4006C52.1304 46.9091 54.8484 45.6989 57.1544 43.8793C59.4603 42.0597 61.2816 39.688 62.4536 36.9784C63.6257 34.2688 64.1116 31.3068 63.8674 28.3598C63.6233 25.4128 62.6569 22.5737 61.0554 20.099C59.4539 17.6242 57.2678 15.5918 54.6946 14.1852C52.1214 12.7787 49.2422 12.0424 46.3169 12.0427Z" fill="url(#paint0_linear_362_556)"/>
<path d="M54.2715 47.162V55.0972C54.2715 57.1979 56.4327 58.9006 59.0991 58.9006C61.7655 58.9006 63.9266 57.1979 63.9266 55.0972V37.1385C61.9765 40.8763 60.7042 44.1381 54.2715 47.162Z" fill="url(#paint1_linear_362_556)"/>
<path d="M10.5821 12.5453V4.60406C10.5821 2.50334 8.42102 0.800613 5.75664 0.800613C3.09023 0.800613 0.929086 2.50334 0.929086 4.60406V22.5627C2.87918 18.8249 4.15149 15.5631 10.5821 12.5453Z" fill="url(#paint2_linear_362_556)"/>
<defs>
<linearGradient id="paint0_linear_362_556" x1="3.26352" y1="21.1472" x2="64.0337" y2="39.3564" gradientUnits="userSpaceOnUse">
<stop stop-color="#DF8BBB"/>
<stop offset="1" stop-color="#7FA1F9"/>
</linearGradient>
<linearGradient id="paint1_linear_362_556" x1="3.26352" y1="21.1472" x2="64.0337" y2="39.3564" gradientUnits="userSpaceOnUse">
<stop stop-color="#DF8BBB"/>
<stop offset="1" stop-color="#7FA1F9"/>
</linearGradient>
<linearGradient id="paint2_linear_362_556" x1="3.26352" y1="21.1472" x2="64.0337" y2="39.3564" gradientUnits="userSpaceOnUse">
<stop stop-color="#DF8BBB"/>
<stop offset="1" stop-color="#7FA1F9"/>
</linearGradient>
</defs>
</svg>
