<svg width="18" height="18" viewBox="0 0 18 18" fill="none" xmlns="http://www.w3.org/2000/svg">
<path fill-rule="evenodd" clip-rule="evenodd" d="M3.5998 2.70005C3.5998 2.93874 3.50498 3.16766 3.3362 3.33644C3.16742 3.50523 2.9385 3.60005 2.6998 3.60005C2.46111 3.60005 2.23219 3.50523 2.06341 3.33644C1.89463 3.16766 1.7998 2.93874 1.7998 2.70005C1.7998 2.46135 1.89463 2.23244 2.06341 2.06365C2.23219 1.89487 2.46111 1.80005 2.6998 1.80005C2.9385 1.80005 3.16742 1.89487 3.3362 2.06365C3.50498 2.23244 3.5998 2.46135 3.5998 2.70005ZM6.2998 2.70005C6.2998 2.52103 6.37092 2.34934 6.49751 2.22275C6.62409 2.09616 6.79578 2.02505 6.9748 2.02505H15.9748C16.1538 2.02505 16.3255 2.09616 16.4521 2.22275C16.5787 2.34934 16.6498 2.52103 16.6498 2.70005C16.6498 2.87907 16.5787 3.05076 16.4521 3.17735C16.3255 3.30393 16.1538 3.37505 15.9748 3.37505H6.9748C6.79578 3.37505 6.62409 3.30393 6.49751 3.17735C6.37092 3.05076 6.2998 2.87907 6.2998 2.70005ZM6.9748 8.32505C6.79578 8.32505 6.62409 8.39616 6.49751 8.52275C6.37092 8.64934 6.2998 8.82103 6.2998 9.00005C6.2998 9.17907 6.37092 9.35076 6.49751 9.47734C6.62409 9.60393 6.79578 9.67505 6.9748 9.67505H15.9748C16.1538 9.67505 16.3255 9.60393 16.4521 9.47734C16.5787 9.35076 16.6498 9.17907 16.6498 9.00005C16.6498 8.82103 16.5787 8.64934 16.4521 8.52275C16.3255 8.39616 16.1538 8.32505 15.9748 8.32505H6.9748ZM6.9748 14.625C6.79578 14.625 6.62409 14.6962 6.49751 14.8228C6.37092 14.9493 6.2998 15.121 6.2998 15.3C6.2998 15.4791 6.37092 15.6508 6.49751 15.7773C6.62409 15.9039 6.79578 15.975 6.9748 15.975H15.9748C16.1538 15.975 16.3255 15.9039 16.4521 15.7773C16.5787 15.6508 16.6498 15.4791 16.6498 15.3C16.6498 15.121 16.5787 14.9493 16.4521 14.8228C16.3255 14.6962 16.1538 14.625 15.9748 14.625H6.9748ZM2.6998 9.90005C2.9385 9.90005 3.16742 9.80523 3.3362 9.63644C3.50498 9.46766 3.5998 9.23874 3.5998 9.00005C3.5998 8.76135 3.50498 8.53243 3.3362 8.36365C3.16742 8.19487 2.9385 8.10005 2.6998 8.10005C2.46111 8.10005 2.23219 8.19487 2.06341 8.36365C1.89463 8.53243 1.7998 8.76135 1.7998 9.00005C1.7998 9.23874 1.89463 9.46766 2.06341 9.63644C2.23219 9.80523 2.46111 9.90005 2.6998 9.90005ZM2.6998 16.2C2.9385 16.2 3.16742 16.1052 3.3362 15.9364C3.50498 15.7677 3.5998 15.5387 3.5998 15.3C3.5998 15.0614 3.50498 14.8324 3.3362 14.6637C3.16742 14.4949 2.9385 14.4 2.6998 14.4C2.46111 14.4 2.23219 14.4949 2.06341 14.6637C1.89463 14.8324 1.7998 15.0614 1.7998 15.3C1.7998 15.5387 1.89463 15.7677 2.06341 15.9364C2.23219 16.1052 2.46111 16.2 2.6998 16.2Z" fill="#1D1C1D"/>
</svg>
