<svg width="18" height="18" viewBox="0 0 18 18" fill="none" xmlns="http://www.w3.org/2000/svg">
<path fill-rule="evenodd" clip-rule="evenodd" d="M4.3525 2.69998C3.91425 2.69998 3.49396 2.87407 3.18407 3.18395C2.87419 3.49384 2.7001 3.91413 2.7001 4.35238V10.9476C2.7001 11.7576 3.2815 12.4299 4.0501 12.5721V7.05238C4.0501 6.65809 4.12776 6.26767 4.27864 5.90341C4.42953 5.53914 4.65068 5.20816 4.92948 4.92936C5.49254 4.3663 6.25621 4.04998 7.0525 4.04998H12.5722C12.5014 3.67078 12.3003 3.32827 12.0036 3.08173C11.707 2.83519 11.3334 2.70015 10.9477 2.69998H4.3525ZM1.3501 10.9476C1.35042 11.6937 1.62846 12.413 2.13007 12.9654C2.63169 13.5177 3.32095 13.8636 4.0636 13.9356C4.1354 14.6785 4.4813 15.3681 5.03386 15.87C5.58643 16.3718 6.30607 16.6499 7.0525 16.65H10.6237C11.2807 16.65 11.9107 16.389 12.3742 15.9255L15.9256 12.3741C16.1554 12.1442 16.3377 11.8712 16.462 11.5709C16.5863 11.2705 16.6502 10.9486 16.6501 10.6236V7.05238C16.6498 6.30624 16.3717 5.58695 15.8701 5.03459C15.3685 4.48223 14.6792 4.13637 13.9366 4.06438C13.8648 3.32141 13.5189 2.6318 12.9663 2.12998C12.4138 1.62816 11.6941 1.35009 10.9477 1.34998H4.3525C3.95822 1.34998 3.5678 1.42763 3.20353 1.57852C2.83926 1.7294 2.50828 1.95056 2.22948 2.22936C1.66642 2.79242 1.3501 3.55609 1.3501 4.35238V10.9476ZM7.0525 5.39998C6.61425 5.39998 6.19396 5.57407 5.88407 5.88395C5.57419 6.19384 5.4001 6.61413 5.4001 7.05238V13.6476C5.4001 14.5602 6.1399 15.3 7.0525 15.3H10.3501V11.7C10.3501 11.3419 10.4923 10.9986 10.7455 10.7454C10.9987 10.4922 11.3421 10.35 11.7001 10.35H15.3001V7.05238C15.3001 6.61413 15.126 6.19384 14.8161 5.88395C14.5062 5.57407 14.0859 5.39998 13.6477 5.39998H7.0525ZM14.6899 11.7H11.7001V14.6898L14.6899 11.7Z" fill="white" fill-opacity="0.7"/>
</svg>
