<svg width="51" height="50" viewBox="0 0 51 50" fill="none" xmlns="http://www.w3.org/2000/svg">
<g clip-path="url(#clip0_504_981)">
<path d="M50.3904 48.9033L46.3529 36.7917C48.4779 33.085 49.5995 28.8725 49.5995 24.5833C49.5995 11.0275 38.572 0 25.0162 0C11.4604 0 0.432861 11.0275 0.432861 24.5833C0.432861 38.1392 11.4604 49.1667 25.0162 49.1667C28.8829 49.1667 32.7304 48.2433 36.1645 46.4933L49.387 49.9733C49.4579 49.9908 49.5287 50 49.5995 50C49.8262 50 50.0479 49.9067 50.207 49.7367C50.4162 49.5133 50.487 49.1933 50.3904 48.9033ZM13.7662 17.5125H25.4329C25.8929 17.5125 26.2662 17.8858 26.2662 18.3458C26.2662 18.8058 25.8929 19.1792 25.4329 19.1792H13.7662C13.3062 19.1792 12.9329 18.8058 12.9329 18.3458C12.9329 17.8858 13.3062 17.5125 13.7662 17.5125ZM36.2662 32.5125H13.7662C13.3062 32.5125 12.9329 32.1392 12.9329 31.6792C12.9329 31.2192 13.3062 30.8458 13.7662 30.8458H36.2662C36.7262 30.8458 37.0995 31.2192 37.0995 31.6792C37.0995 32.1392 36.7262 32.5125 36.2662 32.5125ZM36.2662 25.8458H13.7662C13.3062 25.8458 12.9329 25.4725 12.9329 25.0125C12.9329 24.5525 13.3062 24.1792 13.7662 24.1792H36.2662C36.7262 24.1792 37.0995 24.5525 37.0995 25.0125C37.0995 25.4725 36.7262 25.8458 36.2662 25.8458Z" fill="black"/>
</g>
<defs>
<clipPath id="clip0_504_981">
<rect width="50" height="50" fill="white" transform="translate(0.432861)"/>
</clipPath>
</defs>
</svg>
