<svg width="18" height="19" viewBox="0 0 18 19" fill="none" xmlns="http://www.w3.org/2000/svg">
<path fill-rule="evenodd" clip-rule="evenodd" d="M5.1476 7.22289C5.27416 7.09649 5.44573 7.02549 5.6246 7.02549C5.80348 7.02549 5.97504 7.09649 6.1016 7.22289L8.9996 10.1209L11.8976 7.22289C11.9594 7.15658 12.0339 7.10338 12.1167 7.06649C12.1995 7.0296 12.2889 7.00976 12.3795 7.00816C12.4702 7.00656 12.5602 7.02323 12.6442 7.05718C12.7283 7.09113 12.8046 7.14166 12.8687 7.20576C12.9328 7.26986 12.9834 7.34621 13.0173 7.43026C13.0513 7.51431 13.0679 7.60433 13.0663 7.69496C13.0647 7.7856 13.0449 7.87498 13.008 7.95778C12.9711 8.04058 12.9179 8.1151 12.8516 8.17689L9.4766 11.5519C9.35004 11.6783 9.17848 11.7493 8.9996 11.7493C8.82073 11.7493 8.64916 11.6783 8.5226 11.5519L5.1476 8.17689C5.0212 8.05033 4.9502 7.87877 4.9502 7.69989C4.9502 7.52102 5.0212 7.34946 5.1476 7.22289Z" fill="#1D1C1D"/>
</svg>
