<svg width="20" height="21" viewBox="0 0 20 21" fill="none" xmlns="http://www.w3.org/2000/svg">
<path fill-rule="evenodd" clip-rule="evenodd" d="M16.53 3.96983C16.6705 4.11045 16.7493 4.30108 16.7493 4.49983C16.7493 4.69858 16.6705 4.8892 16.53 5.02983L11.06 10.4998L16.53 15.9698C16.6625 16.112 16.7346 16.3 16.7312 16.4944C16.7277 16.6887 16.649 16.874 16.5116 17.0114C16.3742 17.1489 16.1888 17.2276 15.9945 17.231C15.8002 17.2344 15.6122 17.1623 15.47 17.0298L10 11.5598L4.53 17.0298C4.38782 17.1623 4.19978 17.2344 4.00548 17.231C3.81118 17.2276 3.62579 17.1489 3.48838 17.0114C3.35096 16.874 3.27225 16.6887 3.26882 16.4944C3.2654 16.3 3.33752 16.112 3.47 15.9698L8.94 10.4998L3.47 5.02983C3.33752 4.88765 3.2654 4.69961 3.26882 4.50531C3.27225 4.311 3.35096 4.12562 3.48838 3.98821C3.62579 3.85079 3.81118 3.77208 4.00548 3.76865C4.19978 3.76523 4.38782 3.83735 4.53 3.96983L10 9.43983L15.47 3.96983C15.6106 3.82938 15.8012 3.75049 16 3.75049C16.1987 3.75049 16.3894 3.82938 16.53 3.96983Z" fill="#1D1C1D" fill-opacity="0.7"/>
</svg>
