<svg width="20" height="20" viewBox="0 0 20 20" fill="none" xmlns="http://www.w3.org/2000/svg">
<path fill-rule="evenodd" clip-rule="evenodd" d="M16.5298 3.47007C16.6703 3.6107 16.7492 3.80132 16.7492 4.00007C16.7492 4.19882 16.6703 4.38945 16.5298 4.53007L11.0598 10.0001L16.5298 15.4701C16.6623 15.6122 16.7344 15.8003 16.731 15.9946C16.7276 16.1889 16.6489 16.3743 16.5115 16.5117C16.3741 16.6491 16.1887 16.7278 15.9944 16.7312C15.8001 16.7347 15.612 16.6626 15.4698 16.5301L9.99985 11.0601L4.52985 16.5301C4.38767 16.6626 4.19963 16.7347 4.00532 16.7312C3.81102 16.7278 3.62564 16.6491 3.48822 16.5117C3.35081 16.3743 3.2721 16.1889 3.26867 15.9946C3.26524 15.8003 3.33737 15.6122 3.46985 15.4701L8.93985 10.0001L3.46985 4.53007C3.33737 4.3879 3.26524 4.19985 3.26867 4.00555C3.2721 3.81125 3.35081 3.62586 3.48822 3.48845C3.62564 3.35104 3.81102 3.27233 4.00532 3.2689C4.19963 3.26547 4.38767 3.33759 4.52985 3.47007L9.99985 8.94007L15.4698 3.47007C15.6105 3.32962 15.8011 3.25073 15.9998 3.25073C16.1986 3.25073 16.3892 3.32962 16.5298 3.47007Z" fill="white" fill-opacity="0.7"/>
</svg>
