<svg width="18" height="18" viewBox="0 0 18 18" fill="none" xmlns="http://www.w3.org/2000/svg">
<g clip-path="url(#clip0_303_4343)">
<path fill-rule="evenodd" clip-rule="evenodd" d="M11.232 2.6333C11.274 2.45905 11.245 2.27525 11.1515 2.12234C11.058 1.96942 10.9076 1.85991 10.7334 1.8179C10.5591 1.77589 10.3753 1.80482 10.2224 1.89832C10.0695 1.99183 9.95997 2.14225 9.91796 2.3165L6.76796 15.3665C6.72595 15.5407 6.75488 15.7245 6.84839 15.8775C6.94189 16.0304 7.09232 16.1399 7.26656 16.1819C7.44081 16.2239 7.62461 16.195 7.77753 16.1015C7.93044 16.008 8.03995 15.8575 8.08196 15.6833L11.232 2.6333ZM5.18666 4.6835C5.05632 4.56084 4.8826 4.49497 4.7037 4.50037C4.5248 4.50577 4.35537 4.582 4.23266 4.7123L0.632664 8.5373C0.51483 8.66251 0.449219 8.82796 0.449219 8.9999C0.449219 9.17183 0.51483 9.33729 0.632664 9.4625L4.23266 13.2875C4.35624 13.4141 4.52456 13.487 4.70141 13.4908C4.87825 13.4945 5.04949 13.4286 5.17828 13.3074C5.30708 13.1862 5.38313 13.0192 5.39008 12.8424C5.39704 12.6657 5.33433 12.4933 5.21546 12.3623L2.05196 8.9999L5.21636 5.6375C5.33902 5.50716 5.4049 5.33344 5.3995 5.15454C5.3941 4.97564 5.31696 4.8062 5.18666 4.6835ZM12.8115 4.6835C12.9418 4.56084 13.1155 4.49497 13.2944 4.50037C13.4733 4.50577 13.6428 4.582 13.7655 4.7123L17.3655 8.5373C17.4833 8.66251 17.5489 8.82796 17.5489 8.9999C17.5489 9.17183 17.4833 9.33729 17.3655 9.4625L13.7655 13.2875C13.6419 13.4141 13.4736 13.487 13.2967 13.4908C13.1199 13.4945 12.9486 13.4286 12.8198 13.3074C12.6911 13.1862 12.615 13.0192 12.608 12.8424C12.6011 12.6657 12.6638 12.4933 12.7827 12.3623L15.948 8.9999L12.7836 5.6375C12.6609 5.50716 12.595 5.33344 12.6004 5.15454C12.6058 4.97564 12.6821 4.8062 12.8124 4.6835H12.8115Z" fill="#1D1C1D"/>
</g>
<defs>
<clipPath id="clip0_303_4343">
<rect width="18" height="18" fill="white"/>
</clipPath>
</defs>
</svg>
