<svg width="18" height="18" viewBox="0 0 18 18" fill="none" xmlns="http://www.w3.org/2000/svg">
<g clip-path="url(#clip0_303_4346)">
<path fill-rule="evenodd" clip-rule="evenodd" d="M8.29094 2.46337C8.31895 2.37922 8.33011 2.29038 8.32379 2.20191C8.31746 2.11345 8.29377 2.0271 8.25408 1.94779C8.21438 1.86848 8.15945 1.79776 8.09242 1.73968C8.0254 1.6816 7.94759 1.63729 7.86344 1.60927C7.77929 1.58126 7.69044 1.5701 7.60198 1.57643C7.51351 1.58275 7.42716 1.60644 7.34785 1.64613C7.26854 1.68583 7.19782 1.74076 7.13974 1.80779C7.08166 1.87481 7.03735 1.95262 7.00934 2.03677L4.75934 8.78677C4.70277 8.95672 4.71603 9.14219 4.7962 9.30236C4.87637 9.46254 5.01689 9.5843 5.18684 9.64087C5.35679 9.69744 5.54225 9.68419 5.70243 9.60401C5.8626 9.52384 5.98437 9.38332 6.04094 9.21337L8.29094 2.46337ZM13.7251 2.70187C13.5461 2.70187 13.3744 2.77299 13.2478 2.89958C13.1213 3.02616 13.0501 3.19785 13.0501 3.37687C13.0501 3.5559 13.1213 3.72758 13.2478 3.85417C13.3744 3.98076 13.5461 4.05187 13.7251 4.05187H15.5251C15.5848 4.05187 15.642 4.07558 15.6842 4.11778C15.7264 4.15997 15.7501 4.2172 15.7501 4.27687V14.6269C15.7501 14.6865 15.7264 14.7438 15.6842 14.786C15.642 14.8282 15.5848 14.8519 15.5251 14.8519H3.82514C3.76546 14.8519 3.70823 14.8282 3.66604 14.786C3.62384 14.7438 3.60014 14.6865 3.60014 14.6269V11.4769C3.60014 11.2979 3.52902 11.1262 3.40244 10.9996C3.27585 10.873 3.10416 10.8019 2.92514 10.8019C2.74612 10.8019 2.57443 10.873 2.44784 10.9996C2.32125 11.1262 2.25014 11.2979 2.25014 11.4769V14.6269C2.25014 15.4963 2.95574 16.2019 3.82514 16.2019H15.5251C15.9429 16.2019 16.3435 16.0359 16.6388 15.7406C16.9342 15.4452 17.1001 15.0446 17.1001 14.6269V4.27687C17.1001 3.85916 16.9342 3.45855 16.6388 3.16318C16.3435 2.86781 15.9429 2.70187 15.5251 2.70187H13.7251ZM10.4041 3.15187C10.3465 3.08158 10.2752 3.02366 10.1946 2.98159C10.1141 2.93951 10.0258 2.91415 9.93516 2.90702C9.84453 2.89989 9.7534 2.91115 9.66722 2.9401C9.58105 2.96906 9.50161 3.01513 9.43368 3.07554C9.36574 3.13595 9.31071 3.20947 9.27189 3.29167C9.23306 3.37387 9.21124 3.46307 9.20774 3.55391C9.20423 3.64476 9.21911 3.73537 9.25149 3.82032C9.28386 3.90527 9.33306 3.98281 9.39614 4.04827L10.7965 5.62597L9.39614 7.20097C9.33442 7.2667 9.2865 7.34411 9.2552 7.42866C9.2239 7.5132 9.20985 7.60316 9.21388 7.69322C9.21791 7.78328 9.23994 7.87162 9.27868 7.95303C9.31741 8.03444 9.37206 8.10727 9.43939 8.16721C9.50673 8.22715 9.5854 8.273 9.67074 8.30204C9.75609 8.33109 9.84639 8.34274 9.93631 8.33631C10.0262 8.32989 10.114 8.30552 10.1943 8.26463C10.2747 8.22375 10.346 8.16718 10.4041 8.09827L12.2041 6.07507C12.3138 5.95155 12.3744 5.79208 12.3744 5.62687C12.3744 5.46167 12.3138 5.3022 12.2041 5.17867L10.4041 3.15187ZM3.59924 8.15407C3.46551 8.27281 3.29012 8.33362 3.11159 8.32316C2.93307 8.3127 2.76599 8.23182 2.64704 8.09827L0.847038 6.07507C0.737343 5.95155 0.676758 5.79208 0.676758 5.62687C0.676758 5.46167 0.737343 5.3022 0.847038 5.17867L2.64704 3.15187C2.70469 3.08158 2.77595 3.02366 2.85654 2.98159C2.93712 2.93951 3.02538 2.91415 3.11601 2.90702C3.20664 2.89989 3.29778 2.91115 3.38395 2.9401C3.47013 2.96906 3.54956 3.01513 3.6175 3.07554C3.68543 3.13595 3.74046 3.20947 3.77929 3.29167C3.81811 3.37387 3.83993 3.46307 3.84344 3.55391C3.84694 3.64476 3.83206 3.73537 3.79969 3.82032C3.76731 3.90527 3.71811 3.98281 3.65504 4.04827L2.25374 5.62597L3.65504 7.20097C3.7141 7.26724 3.75952 7.34449 3.78869 7.42833C3.81786 7.51217 3.8302 7.60093 3.82502 7.68955C3.81984 7.77816 3.79723 7.86488 3.75849 7.94475C3.71974 8.02461 3.66563 8.09515 3.59924 8.15407Z" fill="#1D1C1D"/>
</g>
<defs>
<clipPath id="clip0_303_4346">
<rect width="18" height="18" fill="white"/>
</clipPath>
</defs>
</svg>
