<svg width="32" height="31" viewBox="0 0 32 31" fill="none" xmlns="http://www.w3.org/2000/svg">
<g clip-path="url(#clip0_509_1151)">
<path d="M21.6378 5.89892L17.8178 2.03235C16.9776 1.18193 15.6154 1.18193 14.7753 2.03235L11.0049 5.84869C11.0049 5.84869 17.2561 8.55527 13.4363 12.4564C9.59985 16.3745 6.90809 9.99538 6.90809 9.99538L3.13776 13.8117C2.29759 14.6621 2.29759 16.0409 3.13776 16.8913L6.95777 20.7579C6.95777 20.7579 0.680375 23.423 4.58721 27.3429C8.4772 31.2459 11.093 24.9435 11.093 24.9435L14.913 28.8101C15.7532 29.6605 17.1153 29.6605 17.9555 28.81L21.7259 24.9937C21.7259 24.9937 15.4746 22.2871 19.2945 18.386C23.1309 14.4679 25.8226 20.847 25.8226 20.847L29.593 17.0307C30.4331 16.1803 30.4331 14.8015 29.593 13.9511L25.773 10.0845C25.773 10.0845 32.0503 7.41938 28.1435 3.49947C24.2535 -0.403549 21.6378 5.89892 21.6378 5.89892Z" fill="white" fill-opacity="0.09" stroke="white" stroke-width="2" stroke-linecap="round" stroke-linejoin="round"/>
</g>
<defs>
<clipPath id="clip0_509_1151">
<rect width="31" height="31" fill="white" transform="translate(0.659973)"/>
</clipPath>
</defs>
</svg>
