<svg width="18" height="18" viewBox="0 0 18 18" fill="none" xmlns="http://www.w3.org/2000/svg">
<g clip-path="url(#clip0_303_4362)">
<path fill-rule="evenodd" clip-rule="evenodd" d="M2.2499 8.9999C2.2499 7.20969 2.96106 5.4928 4.22693 4.22693C5.4928 2.96106 7.20969 2.2499 8.9999 2.2499C10.7901 2.2499 12.507 2.96106 13.7729 4.22693C15.0387 5.4928 15.7499 7.20969 15.7499 8.9999C15.7499 10.7901 15.0387 12.507 13.7729 13.7729C12.507 15.0387 10.7901 15.7499 8.9999 15.7499C7.20969 15.7499 5.4928 15.0387 4.22693 13.7729C2.96106 12.507 2.2499 10.7901 2.2499 8.9999ZM8.9999 0.899902C6.85165 0.899902 4.79138 1.75329 3.27234 3.27234C1.75329 4.79138 0.899902 6.85165 0.899902 8.9999C0.899902 11.1482 1.75329 13.2084 3.27234 14.7275C4.79138 16.2465 6.85165 17.0999 8.9999 17.0999C11.1482 17.0999 13.2084 16.2465 14.7275 14.7275C16.2465 13.2084 17.0999 11.1482 17.0999 8.9999C17.0999 6.85165 16.2465 4.79138 14.7275 3.27234C13.2084 1.75329 11.1482 0.899902 8.9999 0.899902ZM6.7499 8.5499C7.10794 8.5499 7.45132 8.40767 7.7045 8.1545C7.95767 7.90132 8.0999 7.55794 8.0999 7.1999C8.0999 6.84186 7.95767 6.49848 7.7045 6.24531C7.45132 5.99213 7.10794 5.8499 6.7499 5.8499C6.39186 5.8499 6.04848 5.99213 5.79531 6.24531C5.54213 6.49848 5.3999 6.84186 5.3999 7.1999C5.3999 7.55794 5.54213 7.90132 5.79531 8.1545C6.04848 8.40767 6.39186 8.5499 6.7499 8.5499ZM12.5999 7.1999C12.5999 7.37719 12.565 7.55273 12.4971 7.71652C12.4293 7.88031 12.3299 8.02914 12.2045 8.1545C12.0791 8.27986 11.9303 8.3793 11.7665 8.44714C11.6027 8.51498 11.4272 8.5499 11.2499 8.5499C11.0726 8.5499 10.8971 8.51498 10.7333 8.44714C10.5695 8.3793 10.4207 8.27986 10.2953 8.1545C10.1699 8.02914 10.0705 7.88031 10.0027 7.71652C9.93482 7.55273 9.8999 7.37719 9.8999 7.1999C9.8999 6.84186 10.0421 6.49848 10.2953 6.24531C10.5485 5.99213 10.8919 5.8499 11.2499 5.8499C11.6079 5.8499 11.9513 5.99213 12.2045 6.24531C12.4577 6.49848 12.5999 6.84186 12.5999 7.1999ZM6.8534 10.5893C6.82658 10.5041 6.78311 10.425 6.7255 10.3567C6.6679 10.2884 6.5973 10.2322 6.51782 10.1914C6.43833 10.1506 6.35153 10.126 6.26245 10.119C6.17338 10.112 6.0838 10.1227 5.9989 10.1506C5.91401 10.1785 5.8355 10.2229 5.76793 10.2814C5.70035 10.3398 5.64505 10.4111 5.60524 10.4911C5.56542 10.5711 5.54188 10.6582 5.53599 10.7474C5.5301 10.8365 5.54196 10.926 5.5709 11.0105C6.1163 12.6719 7.5851 13.4999 9.0242 13.4999C10.4633 13.4999 11.9312 12.6719 12.4784 11.0105C12.5073 10.926 12.5192 10.8365 12.5133 10.7474C12.5074 10.6582 12.4839 10.5711 12.4441 10.4911C12.4043 10.4111 12.349 10.3398 12.2814 10.2814C12.2138 10.2229 12.1353 10.1785 12.0504 10.1506C11.9655 10.1227 11.8759 10.112 11.7868 10.119C11.6978 10.126 11.611 10.1506 11.5315 10.1914C11.452 10.2322 11.3814 10.2884 11.3238 10.3567C11.2662 10.425 11.2227 10.5041 11.1959 10.5893C10.8539 11.6288 9.9539 12.1499 9.0242 12.1499C8.0945 12.1499 7.1954 11.6279 6.8534 10.5893Z" fill="#1D1C1D" fill-opacity="0.7"/>
</g>
<defs>
<clipPath id="clip0_303_4362">
<rect width="18" height="18" fill="white"/>
</clipPath>
</defs>
</svg>
