<svg width="18" height="18" viewBox="0 0 18 18" fill="none" xmlns="http://www.w3.org/2000/svg">
<g clip-path="url(#clip0_303_4358)">
<path fill-rule="evenodd" clip-rule="evenodd" d="M6.24698 3.55669C5.83388 2.31649 4.07438 2.32999 3.67928 3.57649L0.0315809 15.0965C-0.0185304 15.2661 -0.000101064 15.4485 0.0829064 15.6047C0.165914 15.7608 0.306871 15.8781 0.475471 15.9314C0.644072 15.9847 0.826852 15.9697 0.984513 15.8896C1.14217 15.8096 1.26213 15.6709 1.31858 15.5033L2.30948 12.3749H7.76348L8.81018 15.5132C8.8373 15.5984 8.88108 15.6773 8.93896 15.7454C8.99685 15.8136 9.06769 15.8695 9.14737 15.91C9.22705 15.9506 9.31399 15.9748 9.40313 15.9815C9.49228 15.9882 9.58186 15.977 9.66668 15.9488C9.75149 15.9205 9.82985 15.8757 9.8972 15.8169C9.96455 15.7581 10.0196 15.6866 10.059 15.6064C10.0985 15.5261 10.1216 15.4389 10.1271 15.3497C10.1326 15.2604 10.1203 15.171 10.0909 15.0866L6.24788 3.55759L6.24698 3.55669ZM7.31348 11.0249L4.96628 3.98419L2.73698 11.0249H7.31348ZM12.8917 6.04159C13.7701 5.71805 14.7306 5.69244 15.625 5.96869C16.3128 6.181 16.9145 6.60804 17.3419 7.18722C17.7693 7.7664 18 8.46727 18.0001 9.18709V15.2999C18.0001 15.4789 17.929 15.6506 17.8024 15.7772C17.6758 15.9038 17.5041 15.9749 17.3251 15.9749C17.1461 15.9749 16.9744 15.9038 16.8478 15.7772C16.7212 15.6506 16.6501 15.4789 16.6501 15.2999V14.6294C15.8857 15.2024 15.0146 15.6171 14.0878 15.8489C13.5665 15.9792 13.0182 15.9509 12.5131 15.7676C12.0081 15.5843 11.5692 15.2544 11.2528 14.8202C9.76328 12.7727 11.2258 9.89989 13.7584 9.89989H16.6501V9.18709C16.6501 8.30149 16.0732 7.51939 15.2272 7.25839C14.6154 7.06952 13.9586 7.08723 13.3579 7.30879L13.1401 7.38889C12.8587 7.49252 12.6042 7.65811 12.3954 7.87341C12.1866 8.08871 12.029 8.34821 11.9341 8.63269L11.8909 8.76319C11.8326 8.93081 11.7106 9.06872 11.5513 9.14706C11.3921 9.22541 11.2084 9.23789 11.04 9.18181C10.8717 9.12572 10.7321 9.00558 10.6517 8.84739C10.5712 8.6892 10.5563 8.50569 10.6102 8.33659L10.6534 8.20609C10.8123 7.72961 11.0763 7.29496 11.4259 6.93431C11.7755 6.57366 12.2017 6.29624 12.673 6.12259L12.8917 6.04159ZM16.6501 11.2499H13.7584C12.3301 11.2499 11.5048 12.8708 12.3454 14.0264C12.6667 14.4683 13.2274 14.6717 13.7602 14.5394C14.5716 14.3364 15.3298 13.961 15.9832 13.4387L16.6501 12.905V11.2499Z" fill="#1D1C1D" fill-opacity="0.7"/>
</g>
<defs>
<clipPath id="clip0_303_4358">
<rect width="18" height="18" fill="white"/>
</clipPath>
</defs>
</svg>
