<svg width="48" height="49" viewBox="0 0 48 49" fill="none" xmlns="http://www.w3.org/2000/svg">
<path d="M43.611 21.0629H42V20.9799H24V28.9799H35.303C33.654 33.6369 29.223 36.9799 24 36.9799C17.373 36.9799 12 31.6069 12 24.9799C12 18.3529 17.373 12.9799 24 12.9799C27.059 12.9799 29.842 14.1339 31.961 16.0189L37.618 10.3619C34.046 7.03286 29.268 4.97986 24 4.97986C12.955 4.97986 4 13.9349 4 24.9799C4 36.0249 12.955 44.9799 24 44.9799C35.045 44.9799 44 36.0249 44 24.9799C44 23.6389 43.862 22.3299 43.611 21.0629Z" fill="#FFC107"/>
<path d="M6.306 15.6709L12.877 20.4899C14.655 16.0879 18.961 12.9799 24 12.9799C27.059 12.9799 29.842 14.1339 31.961 16.0189L37.618 10.3619C34.046 7.03286 29.268 4.97986 24 4.97986C16.318 4.97986 9.656 9.31686 6.306 15.6709Z" fill="#FF3D00"/>
<path d="M24 44.9798C29.166 44.9798 33.86 43.0028 37.409 39.7878L31.219 34.5498C29.1435 36.1282 26.6075 36.9819 24 36.9798C18.798 36.9798 14.381 33.6628 12.717 29.0338L6.195 34.0588C9.505 40.5358 16.227 44.9798 24 44.9798Z" fill="#4CAF50"/>
<path d="M43.611 21.0629H42V20.9799H24V28.9799H35.303C34.5142 31.1963 33.0934 33.133 31.216 34.5509L31.219 34.5489L37.409 39.7869C36.971 40.1849 44 34.9799 44 24.9799C44 23.6389 43.862 22.3299 43.611 21.0629Z" fill="#1976D2"/>
</svg>
