<svg width="18" height="18" viewBox="0 0 18 18" fill="none" xmlns="http://www.w3.org/2000/svg">
<path fill-rule="evenodd" clip-rule="evenodd" d="M8.7658 3.49027C8.78087 3.40281 8.77857 3.31324 8.75902 3.22667C8.73947 3.1401 8.70307 3.05823 8.65188 2.98573C8.60069 2.91323 8.53572 2.85152 8.46069 2.80413C8.38565 2.75674 8.30201 2.72459 8.21455 2.70952C8.12709 2.69445 8.03752 2.69676 7.95095 2.71631C7.86438 2.73585 7.78251 2.77226 7.71001 2.82345C7.63751 2.87464 7.57581 2.9396 7.52841 3.01464C7.48102 3.08968 7.44887 3.17331 7.43381 3.26077L6.9118 6.30007H3.3748C3.19578 6.30007 3.02409 6.37119 2.89751 6.49778C2.77092 6.62436 2.6998 6.79605 2.6998 6.97507C2.6998 7.15409 2.77092 7.32578 2.89751 7.45237C3.02409 7.57896 3.19578 7.65007 3.3748 7.65007H6.6778L5.8246 12.6001H2.4748C2.29578 12.6001 2.12409 12.6712 1.99751 12.7978C1.87092 12.9244 1.7998 13.0961 1.7998 13.2751C1.7998 13.4541 1.87092 13.6258 1.99751 13.7524C2.12409 13.879 2.29578 13.9501 2.4748 13.9501H5.5915L5.1847 16.3108C5.15715 16.4859 5.1996 16.6649 5.30289 16.809C5.40619 16.9531 5.56202 17.0507 5.73674 17.0809C5.91145 17.111 6.09101 17.0712 6.23661 16.9701C6.38222 16.8689 6.48218 16.7145 6.5149 16.5403L6.96131 13.9501H9.86651L9.4597 16.3108C9.43215 16.4859 9.4746 16.6649 9.57789 16.809C9.68119 16.9531 9.83702 17.0507 10.0117 17.0809C10.1865 17.111 10.366 17.0712 10.5116 16.9701C10.6572 16.8689 10.7572 16.7145 10.7899 16.5403L11.2363 13.9501H14.6248C14.8038 13.9501 14.9755 13.879 15.1021 13.7524C15.2287 13.6258 15.2998 13.4541 15.2998 13.2751C15.2998 13.0961 15.2287 12.9244 15.1021 12.7978C14.9755 12.6712 14.8038 12.6001 14.6248 12.6001H11.4694L12.3226 7.65007H15.5248C15.7038 7.65007 15.8755 7.57896 16.0021 7.45237C16.1287 7.32578 16.1998 7.15409 16.1998 6.97507C16.1998 6.79605 16.1287 6.62436 16.0021 6.49778C15.8755 6.37119 15.7038 6.30007 15.5248 6.30007H12.5548L13.0408 3.49027C13.0712 3.31364 13.0303 3.13215 12.9269 2.98573C12.8235 2.83931 12.6662 2.73996 12.4896 2.70952C12.3129 2.67909 12.1314 2.72007 11.985 2.82345C11.8386 2.92683 11.7392 3.08414 11.7088 3.26077L11.1868 6.30007H8.2798L8.764 3.49027H8.7658ZM10.0987 12.6001L10.9519 7.65007H8.04761L7.1944 12.6001H10.0996H10.0987Z" fill="white" fill-opacity="0.7"/>
</svg>
