<svg width="14" height="14" viewBox="0 0 14 14" fill="none" xmlns="http://www.w3.org/2000/svg">
<g clip-path="url(#clip0_303_3525)">
<path d="M13.2112 6.31522C13.1895 6.09205 13.1794 5.86607 13.1331 5.64852C12.9697 4.87654 12.6384 4.16212 12.203 3.50524C11.9267 3.08978 11.6286 2.67853 11.2207 2.35711C10.9126 2.11569 10.6435 1.82375 10.2905 1.63988C9.90428 1.44057 9.52382 1.2188 9.11588 1.07423C8.73542 0.93949 8.32169 0.895979 7.92387 0.804746C7.56366 0.721935 7.19767 0.69667 6.82878 0.700881C6.68122 0.703688 6.53222 0.717724 6.38611 0.73597C6.08232 0.772464 5.77564 0.796325 5.47764 0.860889C4.96264 0.973176 4.48381 1.1781 4.01366 1.41811C3.42779 1.71708 2.9533 2.14517 2.47302 2.56344C2.20106 2.80064 1.9913 3.11505 1.79022 3.41822C1.498 3.85474 1.25931 4.32213 1.08137 4.81479C0.854256 5.44359 0.719721 6.09205 0.706702 6.75875C0.695129 7.42545 0.703808 8.09216 0.703808 8.75746C0.703808 9.46486 0.699468 10.1723 0.706702 10.8797C0.708148 11.0383 0.734187 11.1997 0.780479 11.3527C1.03508 12.2117 1.6065 12.8026 2.45132 13.138C2.84046 13.2924 3.25708 13.2952 3.67516 13.2995C4.07587 13.3037 4.43318 13.2195 4.74999 12.978C5.01038 12.7801 5.21002 12.5359 5.28813 12.2271C5.346 11.9997 5.35178 11.7569 5.35468 11.5211C5.36191 10.679 5.35902 9.83822 5.35468 8.99607C5.35468 8.81641 5.35034 8.63394 5.31273 8.45849C5.23172 8.08233 5.02919 7.77495 4.70515 7.54616C4.45344 7.36791 4.18292 7.24439 3.85888 7.25843C3.6549 7.26685 3.44948 7.26825 3.24407 7.25843C2.82455 7.23737 2.43685 7.3272 2.07086 7.52651C1.90595 7.61634 1.88859 7.60652 1.89871 7.42826C1.91607 7.1293 1.94211 6.83033 1.97104 6.53137C1.9913 6.32645 1.99998 6.11731 2.04916 5.918C2.18659 5.37061 2.37465 4.83865 2.65529 4.34038C2.84914 3.99509 3.09217 3.6849 3.36847 3.40138C3.57679 3.18803 3.79957 2.9789 4.04983 2.81608C4.36375 2.61116 4.69791 2.42589 5.04655 2.28553C5.46751 2.1171 5.90294 1.99218 6.36875 1.95428C6.91413 1.90937 7.45661 1.90656 7.98607 2.01604C8.49094 2.12131 8.977 2.29816 9.42835 2.55642C10.0258 2.89889 10.5495 3.31857 10.956 3.86596C11.3046 4.33476 11.5708 4.84707 11.7516 5.40149C11.9729 6.08222 12.0684 6.77559 12.0554 7.48581C12.0525 7.63178 12.0323 7.64862 11.9064 7.57283C11.5173 7.33703 11.0847 7.27387 10.6392 7.26123C10.3918 7.25422 10.1444 7.25843 9.8985 7.26123C9.84063 7.26123 9.78277 7.27387 9.7278 7.29071C9.2345 7.43949 8.89744 7.74828 8.72963 8.2255C8.64283 8.47112 8.64428 8.72377 8.64717 8.98063C8.6573 9.95612 8.65875 10.933 8.65585 11.9085C8.65585 12.3198 8.86851 12.6342 9.14915 12.8994C9.44426 13.1773 9.80881 13.3275 10.2413 13.2966C10.5379 13.2756 10.8345 13.2966 11.1296 13.2349C11.5766 13.1437 11.9599 12.9486 12.3201 12.6777C12.948 12.2033 13.2778 11.5744 13.2763 10.8249C13.2735 9.3217 13.3631 7.81705 13.2127 6.31522H13.2112ZM1.89727 9.83681C1.89727 9.18414 2.46868 8.51183 3.10808 8.45568C3.37715 8.43182 3.64912 8.44025 3.91963 8.45849C3.98329 8.4627 4.06719 8.55394 4.09323 8.62271C4.13084 8.72096 4.13518 8.83606 4.13663 8.94413C4.14097 9.38205 4.13807 9.81997 4.13807 10.2593C4.13807 10.6972 4.13952 11.1351 4.13663 11.5744C4.13663 11.6769 4.13373 11.785 4.09902 11.8804C4.05706 11.9983 3.95291 12.0938 3.82126 12.0952C3.55943 12.0994 3.29036 12.1092 3.0372 12.0587C2.53522 11.9562 2.19382 11.6376 2.01444 11.1786C1.93922 10.9849 1.91752 10.766 1.90161 10.5569C1.8828 10.3182 1.89727 10.0782 1.89727 9.83822V9.83681ZM12.0482 10.8713C12.038 10.9681 12.0163 11.0607 11.9845 11.1506C11.9715 11.1885 11.957 11.2264 11.9397 11.2629C11.9368 11.2685 11.9353 11.2741 11.9324 11.2797C11.7516 11.6615 11.3856 11.952 10.9487 12.0545C10.914 12.0629 10.8764 12.0657 10.8417 12.0713C10.7448 12.0868 10.645 12.0952 10.5437 12.098C10.4063 12.1008 10.2659 12.0966 10.13 12.0952C10.0678 12.0952 10.0142 12.0699 9.96938 12.0264C9.95492 12.0124 9.94045 11.9955 9.92888 11.9773C9.87969 11.9057 9.85076 11.8046 9.85076 11.6938C9.84931 11.2025 9.85076 10.7126 9.85076 10.2214C9.85076 9.73716 9.85076 9.25152 9.85076 8.76728C9.85076 8.63394 9.90284 8.52727 9.99542 8.46972C10.0417 8.44025 10.0967 8.422 10.1618 8.4206C10.48 8.40796 10.8026 8.39954 11.1079 8.52025C11.3133 8.60025 11.4898 8.70412 11.633 8.83325C11.6952 8.88939 11.7502 8.95255 11.7994 9.01852C11.9382 9.2038 12.0265 9.42556 12.0496 9.69084C12.0511 9.7133 12.0525 9.73575 12.054 9.75821C12.0829 10.1274 12.0858 10.5035 12.0482 10.8713Z" fill="white" fill-opacity="0.5"/>
</g>
<defs>
<clipPath id="clip0_303_3525">
<rect width="14" height="14" fill="white"/>
</clipPath>
</defs>
</svg>
