<svg width="220" height="390" viewBox="0 0 220 390" fill="none" xmlns="http://www.w3.org/2000/svg">
<g clip-path="url(#clip0_509_1163)">
<g opacity="0.2" filter="url(#filter0_i_509_1163)">
<path d="M95.5125 478.236C147.73 478.236 190.061 348.555 190.061 188.587C190.061 28.6182 147.73 -101.062 95.5125 -101.062C43.2948 -101.062 0.963959 28.6182 0.963959 188.587C0.963959 348.555 43.2948 478.236 95.5125 478.236Z" fill="url(#paint0_linear_509_1163)"/>
</g>
<path d="M95.5125 478.236C147.73 478.236 190.061 348.555 190.061 188.587C190.061 28.6182 147.73 -101.062 95.5125 -101.062" stroke="#571FB6" stroke-width="1.00051"/>
<g filter="url(#filter1_d_509_1163)">
<path d="M214.05 177.116C214.05 163.026 202.628 151.603 188.537 151.603C174.447 151.603 163.024 163.026 163.024 177.116C163.024 191.207 174.447 202.629 188.537 202.629C202.628 202.629 214.05 191.207 214.05 177.116Z" fill="url(#paint1_linear_509_1163)"/>
<path d="M213.55 177.116C213.55 163.302 202.352 152.103 188.537 152.103C174.723 152.103 163.525 163.302 163.525 177.116C163.525 190.93 174.723 202.129 188.537 202.129C202.352 202.129 213.55 190.93 213.55 177.116Z" stroke="#571FB6" stroke-width="1.00051"/>
</g>
<path d="M183.936 184.942C180.07 184.942 177.378 182.019 177.378 178.407C177.378 174.84 180.07 171.894 183.936 171.894C187.802 171.894 190.494 174.84 190.494 178.407C190.494 182.019 187.802 184.942 183.936 184.942ZM183.936 182.572C186.191 182.572 187.94 180.708 187.94 178.407C187.94 176.151 186.191 174.242 183.936 174.242C181.681 174.242 179.932 176.151 179.932 178.407C179.932 180.708 181.681 182.572 183.936 182.572ZM193.036 184.62V172.216H195.452V173.988C196.211 172.562 197.385 171.894 198.973 171.894C199.41 171.894 199.916 171.94 200.445 172.101L200.215 174.564C199.755 174.403 199.295 174.334 198.858 174.334C197.063 174.334 195.567 175.507 195.567 178.269V184.62H193.036Z" fill="white"/>
</g>
<defs>
<filter id="filter0_i_509_1163" x="-69.072" y="-101.062" width="259.133" height="579.298" filterUnits="userSpaceOnUse" color-interpolation-filters="sRGB">
<feFlood flood-opacity="0" result="BackgroundImageFix"/>
<feBlend mode="normal" in="SourceGraphic" in2="BackgroundImageFix" result="shape"/>
<feColorMatrix in="SourceAlpha" type="matrix" values="0 0 0 0 0 0 0 0 0 0 0 0 0 0 0 0 0 0 127 0" result="hardAlpha"/>
<feOffset dx="-70.036"/>
<feGaussianBlur stdDeviation="47.0242"/>
<feComposite in2="hardAlpha" operator="arithmetic" k2="-1" k3="1"/>
<feColorMatrix type="matrix" values="0 0 0 0 0.243612 0 0 0 0 0.156174 0 0 0 0 0.642546 0 0 0 1 0"/>
<feBlend mode="normal" in2="shape" result="effect1_innerShadow_509_1163"/>
</filter>
<filter id="filter1_d_509_1163" x="158.022" y="148.601" width="61.0314" height="61.0313" filterUnits="userSpaceOnUse" color-interpolation-filters="sRGB">
<feFlood flood-opacity="0" result="BackgroundImageFix"/>
<feColorMatrix in="SourceAlpha" type="matrix" values="0 0 0 0 0 0 0 0 0 0 0 0 0 0 0 0 0 0 127 0" result="hardAlpha"/>
<feOffset dy="2.00103"/>
<feGaussianBlur stdDeviation="2.50129"/>
<feComposite in2="hardAlpha" operator="out"/>
<feColorMatrix type="matrix" values="0 0 0 0 0.395468 0 0 0 0 0.153005 0 0 0 0 0.792546 0 0 0 0.8 0"/>
<feBlend mode="normal" in2="BackgroundImageFix" result="effect1_dropShadow_509_1163"/>
<feBlend mode="normal" in="SourceGraphic" in2="effect1_dropShadow_509_1163" result="shape"/>
</filter>
<linearGradient id="paint0_linear_509_1163" x1="198.065" y1="-81.0431" x2="48.9886" y2="-81.0431" gradientUnits="userSpaceOnUse">
<stop stop-color="#5138E8"/>
<stop offset="1" stop-color="#5138E8" stop-opacity="0"/>
</linearGradient>
<linearGradient id="paint1_linear_509_1163" x1="180.033" y1="154.607" x2="196.541" y2="240.651" gradientUnits="userSpaceOnUse">
<stop stop-color="#AB53FF"/>
<stop offset="1" stop-color="#6F2DEC"/>
</linearGradient>
<clipPath id="clip0_509_1163">
<rect width="218.112" height="389.2" fill="white" transform="translate(0.963959 -0.0100098)"/>
</clipPath>
</defs>
</svg>
