<svg width="18" height="18" viewBox="0 0 18 18" fill="none" xmlns="http://www.w3.org/2000/svg">
<path fill-rule="evenodd" clip-rule="evenodd" d="M6.3001 2.47505C6.3001 2.29603 6.37121 2.12434 6.4978 1.99775C6.62439 1.87116 6.79608 1.80005 6.9751 1.80005H13.7251C13.9041 1.80005 14.0758 1.87116 14.2024 1.99775C14.329 2.12434 14.4001 2.29603 14.4001 2.47505C14.4001 2.65407 14.329 2.82576 14.2024 2.95235C14.0758 3.07893 13.9041 3.15005 13.7251 3.15005H11.0701L8.7301 14.85H11.0251C11.2041 14.85 11.3758 14.9212 11.5024 15.0478C11.629 15.1743 11.7001 15.346 11.7001 15.525C11.7001 15.7041 11.629 15.8758 11.5024 16.0023C11.3758 16.1289 11.2041 16.2 11.0251 16.2H4.2751C4.09608 16.2 3.92439 16.1289 3.7978 16.0023C3.67121 15.8758 3.6001 15.7041 3.6001 15.525C3.6001 15.346 3.67121 15.1743 3.7978 15.0478C3.92439 14.9212 4.09608 14.85 4.2751 14.85H6.9301L9.2701 3.15005H6.9751C6.79608 3.15005 6.62439 3.07893 6.4978 2.95235C6.37121 2.82576 6.3001 2.65407 6.3001 2.47505Z" fill="#1D1C1D"/>
</svg>
