<svg width="18" height="18" viewBox="0 0 18 18" fill="none" xmlns="http://www.w3.org/2000/svg">
<path fill-rule="evenodd" clip-rule="evenodd" d="M11.0752 3.37955C11.5394 2.91542 12.1689 2.65468 12.8253 2.65468C13.4816 2.65468 14.1112 2.91542 14.5753 3.37955L14.6203 3.42455C14.8503 3.65439 15.0327 3.92729 15.1571 4.22764C15.2816 4.528 15.3456 4.84993 15.3456 5.17505C15.3456 5.50017 15.2816 5.82211 15.1571 6.12246C15.0327 6.42282 14.8503 6.69571 14.6203 6.92555L11.7583 9.78755C11.5214 10.0244 11.2388 10.2107 10.9278 10.3351C10.6168 10.4596 10.2837 10.5196 9.9488 10.5115C9.6139 10.5034 9.28411 10.4274 8.97944 10.2881C8.67476 10.1488 8.40153 9.94915 8.17631 9.70115L8.14931 9.67055C8.08962 9.60496 8.0176 9.55176 7.93736 9.514C7.85711 9.47624 7.77022 9.45465 7.68163 9.45047C7.50272 9.44203 7.32778 9.50501 7.19531 9.62555C7.06283 9.74609 6.98367 9.91432 6.97523 10.0932C6.96679 10.2721 7.02977 10.4471 7.15031 10.5796L7.17731 10.6093C7.52546 10.9923 7.94774 11.3007 8.41857 11.5158C8.88941 11.7309 9.399 11.8482 9.91648 11.8605C10.434 11.8729 10.9486 11.7801 11.4291 11.5878C11.9097 11.3954 12.3463 11.1075 12.7123 10.7416L15.5743 7.87955C16.2915 7.16224 16.6944 6.18942 16.6944 5.17505C16.6944 4.16069 16.2915 3.18786 15.5743 2.47055L15.5293 2.42555C14.812 1.70834 13.8392 1.30542 12.8248 1.30542C11.8104 1.30542 10.8376 1.70834 10.1203 2.42555L8.52281 4.02305C8.45649 4.08485 8.4033 4.15937 8.36641 4.24217C8.32951 4.32497 8.30967 4.41435 8.30808 4.50498C8.30648 4.59562 8.32315 4.68564 8.3571 4.76969C8.39105 4.85374 8.44158 4.93009 8.50567 4.99419C8.56977 5.05828 8.64612 5.10881 8.73017 5.14276C8.81422 5.17671 8.90425 5.19338 8.99488 5.19179C9.08551 5.19019 9.17489 5.17035 9.25769 5.13346C9.34049 5.09656 9.41501 5.04337 9.47681 4.97705L11.0752 3.37955ZM6.92531 14.6206C6.69547 14.8505 6.42257 15.0329 6.12222 15.1574C5.82186 15.2818 5.49993 15.3459 5.17481 15.3459C4.84969 15.3459 4.52776 15.2818 4.2274 15.1574C3.92704 15.0329 3.65415 14.8505 3.42431 14.6206L3.37931 14.5756C3.14936 14.3457 2.96695 14.0728 2.8425 13.7725C2.71804 13.4721 2.65399 13.1502 2.65399 12.8251C2.65399 12.4999 2.71804 12.178 2.8425 11.8776C2.96695 11.5773 3.14936 11.3044 3.37931 11.0746L6.24131 8.21255C6.47823 7.9757 6.76077 7.78942 7.0718 7.66498C7.38284 7.54055 7.7159 7.48055 8.05081 7.48863C8.38572 7.49671 8.7155 7.57269 9.02018 7.71198C9.32485 7.85127 9.59808 8.05096 9.82331 8.29895L9.85031 8.32865C9.97073 8.46113 10.1388 8.54034 10.3177 8.54886C10.4965 8.55739 10.6714 8.49452 10.8039 8.3741C10.9363 8.25368 11.0155 8.08557 11.0241 7.90674C11.0326 7.72792 10.9697 7.55303 10.8493 7.42055L10.8223 7.38995C10.4741 7.00696 10.0518 6.69862 9.5809 6.48362C9.11003 6.26862 8.60043 6.15143 8.08294 6.13914C7.56546 6.12686 7.05087 6.21973 6.57033 6.41215C6.08979 6.60456 5.6533 6.89251 5.28731 7.25855L2.42531 10.1206C1.70809 10.8379 1.30518 11.8107 1.30518 12.8251C1.30518 13.8394 1.70809 14.8122 2.42531 15.5296L2.47031 15.5746C3.18762 16.2918 4.16045 16.6947 5.17481 16.6947C6.18917 16.6947 7.162 16.2918 7.87931 15.5746L9.47681 13.9771C9.59604 13.8491 9.66095 13.6799 9.65787 13.505C9.65478 13.3301 9.58394 13.1633 9.46027 13.0396C9.3366 12.9159 9.16975 12.8451 8.99488 12.842C8.82001 12.8389 8.65077 12.9038 8.52281 13.0231L6.92531 14.6206Z" fill="#1D1C1D"/>
</svg>
