<svg width="18" height="18" viewBox="0 0 18 18" fill="none" xmlns="http://www.w3.org/2000/svg">
<path fill-rule="evenodd" clip-rule="evenodd" d="M9.0002 1.3501C7.92607 1.3501 6.89594 1.77679 6.13641 2.53632C5.37689 3.29584 4.9502 4.32597 4.9502 5.4001V6.7501H4.7252C4.18813 6.7501 3.67307 6.96345 3.2933 7.34321C2.91354 7.72297 2.7002 8.23803 2.7002 8.7751V14.6251C2.7002 15.4945 3.4058 16.2001 4.2752 16.2001H13.7252C14.1429 16.2001 14.5435 16.0342 14.8389 15.7388C15.1343 15.4434 15.3002 15.0428 15.3002 14.6251V8.7751C15.3002 8.23803 15.0868 7.72297 14.7071 7.34321C14.3273 6.96345 13.8123 6.7501 13.2752 6.7501H13.0502V5.4001C13.0502 4.32597 12.6235 3.29584 11.864 2.53632C11.1045 1.77679 10.0743 1.3501 9.0002 1.3501ZM11.7002 6.7501V5.4001C11.7002 4.68401 11.4157 3.99726 10.9094 3.49091C10.403 2.98456 9.71628 2.7001 9.0002 2.7001C8.28411 2.7001 7.59736 2.98456 7.09101 3.49091C6.58466 3.99726 6.3002 4.68401 6.3002 5.4001V6.7501H11.7002ZM4.0502 8.7751C4.0502 8.59608 4.12131 8.42439 4.2479 8.2978C4.37449 8.17121 4.54617 8.1001 4.7252 8.1001H13.2752C13.4542 8.1001 13.6259 8.17121 13.7525 8.2978C13.8791 8.42439 13.9502 8.59608 13.9502 8.7751V14.6251C13.9502 14.6848 13.9265 14.742 13.8843 14.7842C13.8421 14.8264 13.7849 14.8501 13.7252 14.8501H4.2752C4.21552 14.8501 4.15829 14.8264 4.1161 14.7842C4.0739 14.742 4.0502 14.6848 4.0502 14.6251V8.7751Z" fill="white" fill-opacity="0.7"/>
</svg>
