<svg width="20" height="21" viewBox="0 0 20 21" fill="none" xmlns="http://www.w3.org/2000/svg">
<path d="M15.25 17.3799C16.77 17.3799 18 16.1499 18 14.6299V6.12988C18 4.60988 16.77 3.37988 15.25 3.37988H2.75C1.23 3.37988 0 4.60988 0 6.12988V14.6299C0 16.1499 1.23 17.3799 2.75 17.3799H15.25ZM2.75 15.8799C2.06 15.8799 1.5 15.3199 1.5 14.6299V6.12988C1.5 5.43988 2.06 4.87988 2.75 4.87988H15.25C15.94 4.87988 16.5 5.43988 16.5 6.12988V14.6299C16.5 15.3199 15.94 15.8799 15.25 15.8799H2.75ZM9 12.3799C9.21 12.3799 9.42 12.3099 9.63 12.1299L14.21 8.21988C14.4 8.05988 14.5 7.84988 14.5 7.62988C14.5 7.45988 14.45 7.29988 14.34 7.15988C14.2 6.97988 13.97 6.87988 13.75 6.87988C13.58 6.87988 13.42 6.91988 13.28 7.03988L9.18 10.5799C9.12 10.6299 9.06 10.6499 9 10.6499C8.94 10.6499 8.88 10.6299 8.82 10.5799L4.72 7.03988C4.58 6.91988 4.42 6.87988 4.25 6.87988C4.03 6.87988 3.8 6.97988 3.66 7.15988C3.55 7.29988 3.5 7.45988 3.5 7.62988C3.5 7.84988 3.6 8.05988 3.79 8.21988L8.37 12.1299C8.58 12.3099 8.79 12.3799 9 12.3799Z" fill="#1D1C1D"/>
</svg>
