<svg width="18" height="18" viewBox="0 0 18 18" fill="none" xmlns="http://www.w3.org/2000/svg">
<g clip-path="url(#clip0_303_4365)">
<path fill-rule="evenodd" clip-rule="evenodd" d="M2.24991 9.00005C2.24991 7.20984 2.96107 5.49295 4.22694 4.22708C5.49281 2.96121 7.2097 2.25005 8.99991 2.25005C10.7901 2.25005 12.507 2.96121 13.7729 4.22708C15.0388 5.49295 15.7499 7.20984 15.7499 9.00005V9.58055C15.7499 10.5021 15.0029 11.25 14.0804 11.25C13.8071 11.25 13.545 11.1415 13.3517 10.9482C13.1585 10.755 13.0499 10.4929 13.0499 10.2195V6.07505C13.0507 5.90315 12.9859 5.73743 12.8686 5.6117C12.7514 5.48597 12.5906 5.4097 12.4191 5.39845C12.2476 5.3872 12.0782 5.44182 11.9456 5.55116C11.8129 5.6605 11.727 5.81632 11.7053 5.98685C11.1039 5.44689 10.3547 5.09923 9.55407 4.98858C8.75345 4.87793 7.93803 5.00936 7.21272 5.36597C6.4874 5.72257 5.88538 6.28803 5.48409 6.98961C5.0828 7.69119 4.9006 8.49678 4.96093 9.30276C5.02126 10.1087 5.32136 10.8782 5.82263 11.5123C6.3239 12.1463 7.0034 12.6158 7.77372 12.8604C8.54403 13.1051 9.36994 13.1137 10.1452 12.8851C10.9204 12.6565 11.6095 12.2011 12.1238 11.5776C12.3431 11.8937 12.6357 12.1518 12.9767 12.3299C13.3176 12.508 13.6967 12.6007 14.0813 12.6C14.882 12.5998 15.6498 12.2816 16.2158 11.7153C16.7819 11.1491 17.0999 10.3812 17.0999 9.58055V9.00005C17.0998 7.18564 16.4905 5.42382 15.3696 3.99699C14.2488 2.57017 12.6814 1.56097 10.9186 1.13118C9.15588 0.701379 7.29985 0.875872 5.64808 1.62668C3.99631 2.3775 2.64445 3.66115 1.8092 5.27187C0.973958 6.8826 0.703694 8.72711 1.04174 10.5097C1.37978 12.2924 2.30655 13.9099 3.67349 15.103C5.04043 16.2962 6.76837 16.9958 8.58034 17.0898C10.3923 17.1838 12.1834 16.6666 13.6664 15.6213C13.741 15.5712 13.8049 15.5066 13.8542 15.4313C13.9035 15.3561 13.9372 15.2718 13.9535 15.1834C13.9698 15.0949 13.9682 15.0041 13.9489 14.9163C13.9296 14.8285 13.8929 14.7454 13.841 14.6719C13.7891 14.5985 13.7231 14.5361 13.6468 14.4885C13.5705 14.441 13.4855 14.4091 13.3967 14.3948C13.3079 14.3806 13.2171 14.3842 13.1298 14.4055C13.0424 14.4268 12.9602 14.4653 12.8879 14.5188C11.877 15.2311 10.6899 15.6521 9.45609 15.7356C8.22229 15.8192 6.98923 15.5622 5.89153 14.9928C4.79382 14.4233 3.87365 13.5632 3.23146 12.5064C2.58926 11.4496 2.24973 10.2367 2.24991 9.00005ZM8.99991 11.7C9.716 11.7 10.4028 11.4156 10.9091 10.9092C11.4154 10.4029 11.6999 9.71613 11.6999 9.00005C11.6999 8.28396 11.4154 7.59721 10.9091 7.09086C10.4028 6.58451 9.716 6.30005 8.99991 6.30005C8.28383 6.30005 7.59707 6.58451 7.09072 7.09086C6.58438 7.59721 6.29991 8.28396 6.29991 9.00005C6.29991 9.71613 6.58438 10.4029 7.09072 10.9092C7.59707 11.4156 8.28383 11.7 8.99991 11.7Z" fill="#1D1C1D" fill-opacity="0.7"/>
</g>
<defs>
<clipPath id="clip0_303_4365">
<rect width="18" height="18" fill="white"/>
</clipPath>
</defs>
</svg>
