<svg width="21" height="21" viewBox="0 0 21 21" fill="none" xmlns="http://www.w3.org/2000/svg">
<path fill-rule="evenodd" clip-rule="evenodd" d="M10.245 3.62989C9.17672 3.6304 8.12274 3.87541 7.16378 4.34614C6.20481 4.81687 5.36631 5.50085 4.7125 6.34567C4.05868 7.1905 3.6069 8.17375 3.39176 9.22014C3.17661 10.2665 3.20382 11.3483 3.47128 12.3825C3.73875 13.4168 4.23938 14.3761 4.93484 15.187C5.63029 15.9978 6.50211 16.6388 7.48352 17.0607C8.46494 17.4827 9.5299 17.6744 10.5968 17.6212C11.6638 17.568 12.7044 17.2713 13.639 16.7539C13.8039 16.6619 13.9975 16.6354 14.181 16.6799L16.975 17.3599L16.295 14.5659C16.2502 14.3825 16.2763 14.1889 16.368 14.0239C16.9588 12.9582 17.2612 11.7567 17.2452 10.5383C17.2293 9.31994 16.8956 8.1268 16.2771 7.07692C15.6587 6.02705 14.7768 5.1568 13.7189 4.55223C12.6609 3.94767 11.4635 3.62975 10.245 3.62989ZM1.745 10.6299C1.74544 9.34514 2.0371 8.07721 2.59808 6.92139C3.15905 5.76558 3.97472 4.75197 4.98379 3.95676C5.99286 3.16154 7.16906 2.60541 8.42398 2.33017C9.6789 2.05493 10.9799 2.06774 12.2292 2.36764C13.4784 2.66754 14.6434 3.24672 15.6366 4.06166C16.6299 4.87659 17.4254 5.90607 17.9635 7.0727C18.5016 8.23933 18.7683 9.51277 18.7434 10.7973C18.7185 12.0818 18.4028 13.344 17.82 14.4889L18.724 18.2029C18.7544 18.3279 18.7521 18.4587 18.7174 18.5826C18.6826 18.7066 18.6166 18.8195 18.5256 18.9105C18.4346 19.0015 18.3217 19.0675 18.1978 19.1023C18.0738 19.137 17.9431 19.1393 17.818 19.1089L14.104 18.2049C12.8081 18.8652 11.3643 19.182 9.91098 19.1248C8.45763 19.0677 7.04325 18.6385 5.80316 17.8785C4.56308 17.1184 3.53877 16.0528 2.82825 14.7837C2.11772 13.5146 1.74474 12.0844 1.745 10.6299Z" fill="#1D1C1D"/>
</svg>
