<svg width="18" height="18" viewBox="0 0 18 18" fill="none" xmlns="http://www.w3.org/2000/svg">
<path fill-rule="evenodd" clip-rule="evenodd" d="M15.0364 2.94127C14.8676 2.77254 14.6387 2.67776 14.4001 2.67776C14.1614 2.67776 13.9326 2.77254 13.7638 2.94127L13.33 3.37507L14.6251 4.67107L15.0589 4.23637C15.2276 4.06759 15.3224 3.83872 15.3224 3.60007C15.3224 3.36142 15.2276 3.13254 15.0589 2.96377L15.0364 2.94127ZM13.6711 5.62507L12.3751 4.32907L7.8139 8.89117L7.426 10.5751L9.109 10.1872L13.6711 5.62507ZM12.8098 1.98637C13.0187 1.77737 13.2668 1.61159 13.5398 1.49848C13.8128 1.38537 14.1055 1.32715 14.401 1.32715C14.6965 1.32715 14.9892 1.38537 15.2622 1.49848C15.5352 1.61159 15.7833 1.77737 15.9922 1.98637L16.0147 2.00887C16.2237 2.21781 16.3895 2.46587 16.5026 2.73889C16.6157 3.01191 16.6739 3.30454 16.6739 3.60007C16.6739 3.89559 16.6157 4.18822 16.5026 4.46124C16.3895 4.73426 16.2237 4.98233 16.0147 5.19127L9.9271 11.2771C9.83776 11.3663 9.7252 11.4286 9.6022 11.4571L6.6772 12.1321C6.56565 12.1579 6.44937 12.1549 6.33929 12.1234C6.22921 12.0919 6.12895 12.0329 6.04795 11.952C5.96694 11.8711 5.90785 11.7709 5.87623 11.6609C5.84461 11.5508 5.8415 11.4345 5.8672 11.323L6.5422 8.39797C6.57063 8.27497 6.63299 8.1624 6.7222 8.07307L12.8098 1.98637ZM4.7251 3.60007C4.18803 3.60007 3.67297 3.81342 3.29321 4.19318C2.91345 4.57294 2.7001 5.088 2.7001 5.62507V13.2751C2.7001 13.8121 2.91345 14.3272 3.29321 14.707C3.67297 15.0867 4.18803 15.3001 4.7251 15.3001H12.3751C12.9122 15.3001 13.4272 15.0867 13.807 14.707C14.1867 14.3272 14.4001 13.8121 14.4001 13.2751V9.22507C14.4001 9.04605 14.4712 8.87436 14.5978 8.74777C14.7244 8.62118 14.8961 8.55007 15.0751 8.55007C15.2541 8.55007 15.4258 8.62118 15.5524 8.74777C15.679 8.87436 15.7501 9.04605 15.7501 9.22507V13.2751C15.7501 13.7183 15.6628 14.1571 15.4932 14.5666C15.3236 14.9761 15.075 15.3482 14.7616 15.6616C14.4482 15.975 14.0761 16.2236 13.6667 16.3932C13.2572 16.5628 12.8183 16.6501 12.3751 16.6501H4.7251C4.28189 16.6501 3.84301 16.5628 3.43354 16.3932C3.02407 16.2236 2.65201 15.975 2.33861 15.6616C2.02521 15.3482 1.77661 14.9761 1.607 14.5666C1.43739 14.1571 1.3501 13.7183 1.3501 13.2751V5.62507C1.3501 4.72996 1.70568 3.87152 2.33861 3.23858C2.97155 2.60565 3.82999 2.25007 4.7251 2.25007H8.7751C8.95412 2.25007 9.12581 2.32118 9.25239 2.44777C9.37898 2.57436 9.4501 2.74605 9.4501 2.92507C9.4501 3.10409 9.37898 3.27578 9.25239 3.40236C9.12581 3.52895 8.95412 3.60007 8.7751 3.60007H4.7251Z" fill="#3F0E40"/>
</svg>
