<svg width="18" height="18" viewBox="0 0 18 18" fill="none" xmlns="http://www.w3.org/2000/svg">
<path fill-rule="evenodd" clip-rule="evenodd" d="M3.4129 1.88469C3.47085 1.92639 3.51805 1.98127 3.5506 2.0448C3.58315 2.10834 3.60012 2.17871 3.6001 2.25009V5.40009H4.5001C4.61944 5.40009 4.7339 5.4475 4.8183 5.5319C4.90269 5.61629 4.9501 5.73075 4.9501 5.85009C4.9501 5.96944 4.90269 6.0839 4.8183 6.16829C4.7339 6.25268 4.61944 6.30009 4.5001 6.30009H1.8001C1.68075 6.30009 1.56629 6.25268 1.4819 6.16829C1.39751 6.0839 1.3501 5.96944 1.3501 5.85009C1.3501 5.73075 1.39751 5.61629 1.4819 5.5319C1.56629 5.4475 1.68075 5.40009 1.8001 5.40009H2.7001V2.87469L1.9423 3.12669C1.83056 3.15928 1.71055 3.14731 1.60745 3.0933C1.50435 3.03928 1.4262 2.94742 1.38939 2.837C1.35258 2.72658 1.35999 2.6062 1.41006 2.50112C1.46013 2.39605 1.54896 2.31446 1.6579 2.27349L3.0079 1.82349C3.07543 1.80093 3.14736 1.79471 3.21776 1.80534C3.28817 1.81598 3.35505 1.84318 3.4129 1.88469ZM6.9751 3.15009C6.79608 3.15009 6.62439 3.22121 6.4978 3.3478C6.37121 3.47438 6.3001 3.64607 6.3001 3.82509C6.3001 4.00412 6.37121 4.1758 6.4978 4.30239C6.62439 4.42898 6.79608 4.50009 6.9751 4.50009H15.9751C16.1541 4.50009 16.3258 4.42898 16.4524 4.30239C16.579 4.1758 16.6501 4.00412 16.6501 3.82509C16.6501 3.64607 16.579 3.47438 16.4524 3.3478C16.3258 3.22121 16.1541 3.15009 15.9751 3.15009H6.9751ZM6.3001 9.67509C6.3001 9.49607 6.37121 9.32438 6.4978 9.1978C6.62439 9.07121 6.79608 9.00009 6.9751 9.00009H15.9751C16.1541 9.00009 16.3258 9.07121 16.4524 9.1978C16.579 9.32438 16.6501 9.49607 16.6501 9.67509C16.6501 9.85412 16.579 10.0258 16.4524 10.1524C16.3258 10.279 16.1541 10.3501 15.9751 10.3501H6.9751C6.79608 10.3501 6.62439 10.279 6.4978 10.1524C6.37121 10.0258 6.3001 9.85412 6.3001 9.67509ZM6.3001 15.5251C6.3001 15.3461 6.37121 15.1744 6.4978 15.0478C6.62439 14.9212 6.79608 14.8501 6.9751 14.8501H15.9751C16.1541 14.8501 16.3258 14.9212 16.4524 15.0478C16.579 15.1744 16.6501 15.3461 16.6501 15.5251C16.6501 15.7041 16.579 15.8758 16.4524 16.0024C16.3258 16.129 16.1541 16.2001 15.9751 16.2001H6.9751C6.79608 16.2001 6.62439 16.129 6.4978 16.0024C6.37121 15.8758 6.3001 15.7041 6.3001 15.5251ZM2.4364 12.5011C2.52038 12.3917 2.62846 12.3031 2.75223 12.2422C2.87601 12.1813 3.01216 12.1498 3.1501 12.1501C3.5911 12.1501 3.8251 12.4921 3.8251 12.8251C3.8251 12.8827 3.7954 12.9997 3.6694 13.1932C3.5108 13.4221 3.33188 13.6363 3.1348 13.8331C2.9044 14.0734 2.638 14.3263 2.3518 14.5963L2.2726 14.6719C2.0052 14.9215 1.74147 15.175 1.4815 15.4324C1.41871 15.4954 1.37599 15.5756 1.35874 15.6628C1.34149 15.75 1.35047 15.8404 1.38456 15.9226C1.41865 16.0047 1.47632 16.0749 1.55027 16.1243C1.62423 16.1737 1.71116 16.2001 1.8001 16.2001H4.5001C4.61944 16.2001 4.7339 16.1527 4.8183 16.0683C4.90269 15.9839 4.9501 15.8694 4.9501 15.7501C4.9501 15.6307 4.90269 15.5163 4.8183 15.4319C4.7339 15.3475 4.61944 15.3001 4.5001 15.3001H2.9179L2.9701 15.2506C3.2545 14.9824 3.5362 14.7151 3.7837 14.4568C4.02015 14.2192 4.23435 13.9604 4.4236 13.6837C4.5856 13.4344 4.7251 13.1401 4.7251 12.8251C4.7251 12.1168 4.2013 11.2501 3.1501 11.2501C2.80857 11.2497 2.47399 11.3466 2.1855 11.5294C1.89702 11.7122 1.66656 11.9734 1.5211 12.2824C1.49586 12.3359 1.48141 12.3938 1.47857 12.4529C1.47572 12.5119 1.48453 12.571 1.50451 12.6266C1.52448 12.6823 1.55522 12.7335 1.59498 12.7773C1.63473 12.821 1.68272 12.8566 1.7362 12.8818C1.78968 12.907 1.84761 12.9215 1.90667 12.9243C1.96574 12.9272 2.02479 12.9184 2.08045 12.8984C2.13611 12.8784 2.18729 12.8477 2.23106 12.8079C2.27484 12.7682 2.31036 12.7202 2.3356 12.6667C2.36311 12.608 2.39691 12.5525 2.4364 12.5011Z" fill="#1D1C1D"/>
</svg>
