<svg width="12" height="12" viewBox="0 0 12 12" fill="none" xmlns="http://www.w3.org/2000/svg">
<path fill-rule="evenodd" clip-rule="evenodd" d="M6.45 1.95C6.45 1.83065 6.40259 1.71619 6.3182 1.6318C6.23381 1.54741 6.11935 1.5 6 1.5C5.88065 1.5 5.76619 1.54741 5.6818 1.6318C5.59741 1.71619 5.55 1.83065 5.55 1.95V5.55H1.9506C1.83125 5.55 1.71619 5.59741 1.6318 5.6818C1.54741 5.76619 1.5 5.88065 1.5 6C1.5 6.11935 1.54741 6.23381 1.6318 6.3182C1.71619 6.40259 1.83065 6.45 1.95 6.45H5.55V10.05C5.55 10.1693 5.59741 10.2838 5.6818 10.3682C5.76619 10.4526 5.88065 10.5 6 10.5C6.11935 10.5 6.23381 10.4526 6.3182 10.3682C6.40259 10.2838 6.45 10.1693 6.45 10.05V6.45H10.05C10.1693 6.45 10.2838 6.40259 10.3682 6.3182C10.4526 6.23381 10.5 6.11935 10.5 6C10.5 5.88065 10.4526 5.76619 10.3682 5.6818C10.2838 5.59741 10.1693 5.55 10.05 5.55H6.45V1.95Z" fill="#616061"/>
</svg>
