<svg width="16" height="16" viewBox="0 0 16 16" fill="none" xmlns="http://www.w3.org/2000/svg">
<path fill-rule="evenodd" clip-rule="evenodd" d="M7.25 2.75009C6.05653 2.75009 4.91193 3.2242 4.06802 4.06811C3.22411 4.91202 2.75 6.05662 2.75 7.25009C2.75 8.44357 3.22411 9.58816 4.06802 10.4321C4.91193 11.276 6.05653 11.7501 7.25 11.7501C8.44347 11.7501 9.58807 11.276 10.432 10.4321C11.2759 9.58816 11.75 8.44357 11.75 7.25009C11.75 6.05662 11.2759 4.91202 10.432 4.06811C9.58807 3.2242 8.44347 2.75009 7.25 2.75009ZM1.625 7.25009C1.62495 6.34886 1.84144 5.46081 2.25625 4.66072C2.67106 3.86063 3.27204 3.17193 4.00859 2.65259C4.74515 2.13326 5.5957 1.79851 6.48863 1.67652C7.38157 1.55454 8.29074 1.64889 9.1396 1.95164C9.98845 2.25439 10.7521 2.75667 11.3663 3.41618C11.9806 4.0757 12.4273 4.87314 12.669 5.74136C12.9107 6.60958 12.9402 7.52316 12.7551 8.40517C12.5699 9.28718 12.1756 10.1118 11.6053 10.8096L14.21 13.4151C14.2653 13.4666 14.3096 13.5287 14.3403 13.5977C14.3711 13.6667 14.3876 13.7412 14.3889 13.8167C14.3903 13.8922 14.3764 13.9672 14.3481 14.0373C14.3198 14.1073 14.2777 14.171 14.2243 14.2244C14.1709 14.2778 14.1072 14.3199 14.0372 14.3482C13.9672 14.3765 13.8921 14.3904 13.8166 14.389C13.7411 14.3877 13.6666 14.3712 13.5976 14.3404C13.5286 14.3097 13.4665 14.2654 13.415 14.2101L10.8102 11.6053C9.98599 12.2792 8.98741 12.7053 7.93057 12.8341C6.87374 12.9629 5.80205 12.7892 4.84005 12.333C3.87806 11.8769 3.06527 11.1571 2.49614 10.2573C1.92702 9.35756 1.62494 8.31475 1.625 7.25009Z" fill="white"/>
</svg>
