<svg width="30" height="28" viewBox="0 0 30 28" fill="none" xmlns="http://www.w3.org/2000/svg">
<path d="M0 4C0 1.79086 1.79086 0 4 0H30V28H4C1.79086 28 0 26.2091 0 24V4Z" fill="#0C6E51"/>
<path fill-rule="evenodd" clip-rule="evenodd" d="M8.25 8.50144C8.25 7.59436 9.19025 6.98929 10.0214 7.36153L21.0094 12.5706C21.9749 13.003 22.0027 14.3573 21.0557 14.8286L10.0677 20.6164C9.23257 21.032 8.25 20.4277 8.25 19.4984V15.9602C8.25 15.3866 8.64223 14.8866 9.20135 14.7475L14.8029 14.3565C15.1916 14.2595 15.1958 13.7276 14.8029 13.6498L9.375 13.25C8.74647 13.1718 8.27481 12.64 8.27481 12.0096L8.25 8.50144Z" fill="white"/>
</svg>
