<svg width="16" height="16" viewBox="0 0 16 16" fill="none" xmlns="http://www.w3.org/2000/svg">
<path d="M1.2002 1.79991C1.20072 1.70404 1.22406 1.60967 1.26828 1.52461C1.31251 1.43954 1.37635 1.36623 1.45452 1.31073C1.53269 1.25523 1.62295 1.21913 1.71784 1.20542C1.81273 1.19172 1.90951 1.2008 2.0002 1.23191L14.477 7.47751C14.574 7.526 14.6556 7.60056 14.7127 7.69283C14.7697 7.7851 14.7999 7.89143 14.7999 7.99991C14.7999 8.10838 14.7697 8.21472 14.7127 8.30699C14.6556 8.39926 14.574 8.47382 14.477 8.52231L2.0002 14.7679L1.9394 14.7823C1.85132 14.8035 1.7596 14.8044 1.67112 14.785C1.58265 14.7656 1.49972 14.7264 1.42857 14.6704C1.35742 14.6143 1.29991 14.5428 1.26035 14.4614C1.22079 14.3799 1.20023 14.2905 1.2002 14.1999V10.5679C1.2002 9.59991 1.9762 8.78471 2.9682 8.76791L8.2002 8.63191C8.4162 8.62391 8.8002 8.43991 8.8002 7.99991C8.8002 7.55991 8.4002 7.36791 8.2002 7.36791L2.9682 7.23191C2.49643 7.2229 2.04701 7.02926 1.71645 6.69256C1.38588 6.35586 1.20053 5.90296 1.2002 5.43111V1.79991Z" fill="#1D1C1D" fill-opacity="0.3"/>
</svg>
