<svg width="32" height="28" viewBox="0 0 32 28" fill="none" xmlns="http://www.w3.org/2000/svg">
<path d="M0 4C0 1.79086 1.79086 0 4 0H32V28H4C1.79086 28 0 26.2091 0 24V4Z" fill="#007A5A"/>
<path d="M9.2002 7.80003C9.20072 7.70416 9.22406 7.60979 9.26828 7.52473C9.31251 7.43967 9.37635 7.36635 9.45452 7.31085C9.53269 7.25535 9.62295 7.21925 9.71784 7.20554C9.81273 7.19184 9.90951 7.20092 10.0002 7.23203L22.477 13.4776C22.574 13.5261 22.6556 13.6007 22.7127 13.693C22.7697 13.7852 22.7999 13.8916 22.7999 14C22.7999 14.1085 22.7697 14.2148 22.7127 14.3071C22.6556 14.3994 22.574 14.4739 22.477 14.5224L10.0002 20.768L9.9394 20.7824C9.85132 20.8036 9.7596 20.8045 9.67112 20.7851C9.58265 20.7657 9.49972 20.7265 9.42857 20.6705C9.35742 20.6144 9.29991 20.543 9.26035 20.4615C9.22079 20.38 9.20023 20.2906 9.2002 20.2V16.568C9.2002 15.6 9.9762 14.7848 10.9682 14.768L16.2002 14.632C16.4162 14.624 16.8002 14.44 16.8002 14C16.8002 13.56 16.4002 13.368 16.2002 13.368L10.9682 13.232C10.4964 13.223 10.047 13.0294 9.71645 12.6927C9.38588 12.356 9.20053 11.9031 9.2002 11.4312V7.80003Z" fill="white"/>
</svg>
