<svg width="16" height="16" viewBox="0 0 16 16" fill="none" xmlns="http://www.w3.org/2000/svg">
<path fill-rule="evenodd" clip-rule="evenodd" d="M10.8002 2.59999C10.588 2.59999 10.3845 2.68428 10.2345 2.8343C10.0845 2.98433 10.0002 3.18782 10.0002 3.39999C10.0002 3.61216 10.0845 3.81565 10.2345 3.96568C10.3845 4.1157 10.588 4.19999 10.8002 4.19999C11.0124 4.19999 11.2159 4.1157 11.3659 3.96568C11.5159 3.81565 11.6002 3.61216 11.6002 3.39999C11.6002 3.18782 11.5159 2.98433 11.3659 2.8343C11.2159 2.68428 11.0124 2.59999 10.8002 2.59999ZM8.8914 2.79999C9.01905 2.39372 9.27299 2.03877 9.61629 1.78679C9.9596 1.5348 10.3743 1.39893 10.8002 1.39893C11.2261 1.39893 11.6408 1.5348 11.9841 1.78679C12.3274 2.03877 12.5813 2.39372 12.709 2.79999H14.2002C14.3593 2.79999 14.5119 2.8632 14.6245 2.97573C14.737 3.08825 14.8002 3.24086 14.8002 3.39999C14.8002 3.55912 14.737 3.71173 14.6245 3.82425C14.5119 3.93678 14.3593 3.99999 14.2002 3.99999H12.709C12.5811 4.40596 12.3272 4.76058 11.984 5.01232C11.6408 5.26405 11.2262 5.39978 10.8006 5.39978C10.375 5.39978 9.96043 5.26405 9.61723 5.01232C9.27403 4.76058 9.02005 4.40596 8.8922 3.99999H1.8002C1.64107 3.99999 1.48845 3.93678 1.37593 3.82425C1.26341 3.71173 1.2002 3.55912 1.2002 3.39999C1.2002 3.24086 1.26341 3.08825 1.37593 2.97573C1.48845 2.8632 1.64107 2.79999 1.8002 2.79999H8.8914ZM3.2914 7.39999C3.41904 6.99372 3.67299 6.63877 4.01629 6.38679C4.35959 6.1348 4.77434 5.99893 5.2002 5.99893C5.62605 5.99893 6.0408 6.1348 6.3841 6.38679C6.7274 6.63877 6.98135 6.99372 7.109 7.39999H14.2002C14.3593 7.39999 14.5119 7.4632 14.6245 7.57573C14.737 7.68825 14.8002 7.84086 14.8002 7.99999C14.8002 8.15912 14.737 8.31173 14.6245 8.42425C14.5119 8.53678 14.3593 8.59999 14.2002 8.59999H7.109C6.98135 9.00626 6.7274 9.36121 6.3841 9.6132C6.0408 9.86518 5.62605 10.0011 5.2002 10.0011C4.77434 10.0011 4.35959 9.86518 4.01629 9.6132C3.67299 9.36121 3.41904 9.00626 3.2914 8.59999H1.8002C1.64107 8.59999 1.48845 8.53678 1.37593 8.42425C1.26341 8.31173 1.2002 8.15912 1.2002 7.99999C1.2002 7.84086 1.26341 7.68825 1.37593 7.57573C1.48845 7.4632 1.64107 7.39999 1.8002 7.39999H3.2914ZM5.2002 7.19999C4.98802 7.19999 4.78454 7.28428 4.63451 7.43431C4.48448 7.58433 4.4002 7.78782 4.4002 7.99999C4.4002 8.21216 4.48448 8.41565 4.63451 8.56568C4.78454 8.7157 4.98802 8.79999 5.2002 8.79999C5.41237 8.79999 5.61585 8.7157 5.76588 8.56568C5.91591 8.41565 6.0002 8.21216 6.0002 7.99999C6.0002 7.78782 5.91591 7.58433 5.76588 7.43431C5.61585 7.28428 5.41237 7.19999 5.2002 7.19999ZM10.0002 11.8C9.78802 11.8 9.58454 11.8843 9.43451 12.0343C9.28448 12.1843 9.2002 12.3878 9.2002 12.6C9.2002 12.8122 9.28448 13.0156 9.43451 13.1657C9.58454 13.3157 9.78802 13.4 10.0002 13.4C10.2124 13.4 10.4159 13.3157 10.5659 13.1657C10.7159 13.0156 10.8002 12.8122 10.8002 12.6C10.8002 12.3878 10.7159 12.1843 10.5659 12.0343C10.4159 11.8843 10.2124 11.8 10.0002 11.8ZM8.0914 12C8.21905 11.5937 8.47299 11.2388 8.81629 10.9868C9.1596 10.7348 9.57434 10.5989 10.0002 10.5989C10.4261 10.5989 10.8408 10.7348 11.1841 10.9868C11.5274 11.2388 11.7813 11.5937 11.909 12H14.2002C14.3593 12 14.5119 12.0632 14.6245 12.1757C14.737 12.2882 14.8002 12.4409 14.8002 12.6C14.8002 12.7591 14.737 12.9117 14.6245 13.0243C14.5119 13.1368 14.3593 13.2 14.2002 13.2H11.909C11.7811 13.606 11.5272 13.9606 11.184 14.2123C10.8408 14.4641 10.4262 14.5998 10.0006 14.5998C9.57497 14.5998 9.16043 14.4641 8.81723 14.2123C8.47403 13.9606 8.22005 13.606 8.0922 13.2H1.8002C1.64107 13.2 1.48845 13.1368 1.37593 13.0243C1.26341 12.9117 1.2002 12.7591 1.2002 12.6C1.2002 12.4409 1.26341 12.2882 1.37593 12.1757C1.48845 12.0632 1.64107 12 1.8002 12H8.0914Z" fill="white"/>
</svg>
