<svg width="18" height="18" viewBox="0 0 18 18" fill="none" xmlns="http://www.w3.org/2000/svg">
<path fill-rule="evenodd" clip-rule="evenodd" d="M4.0501 2.7001H13.9501C14.3081 2.7001 14.6515 2.84233 14.9047 3.0955C15.1579 3.34868 15.3001 3.69206 15.3001 4.0501V13.9501C15.3001 14.3081 15.1579 14.6515 14.9047 14.9047C14.6515 15.1579 14.3081 15.3001 13.9501 15.3001H4.0501C3.69206 15.3001 3.34868 15.1579 3.0955 14.9047C2.84233 14.6515 2.7001 14.3081 2.7001 13.9501V4.0501C2.7001 3.69206 2.84233 3.34868 3.0955 3.0955C3.34868 2.84233 3.69206 2.7001 4.0501 2.7001ZM1.3501 4.0501C1.3501 3.33401 1.63456 2.64726 2.14091 2.14091C2.64726 1.63456 3.33401 1.3501 4.0501 1.3501H13.9501C14.6662 1.3501 15.3529 1.63456 15.8593 2.14091C16.3656 2.64726 16.6501 3.33401 16.6501 4.0501V13.9501C16.6501 14.6662 16.3656 15.3529 15.8593 15.8593C15.3529 16.3656 14.6662 16.6501 13.9501 16.6501H4.0501C3.33401 16.6501 2.64726 16.3656 2.14091 15.8593C1.63456 15.3529 1.3501 14.6662 1.3501 13.9501V4.0501ZM11.8261 5.302C11.9182 5.14927 11.9461 4.96631 11.9037 4.79307C11.8614 4.61984 11.7521 4.47041 11.6 4.37744C11.4478 4.28446 11.265 4.25549 11.0915 4.29685C10.918 4.33822 10.768 4.44655 10.6741 4.5982L5.7241 12.6982C5.63201 12.8509 5.6041 13.0339 5.64647 13.2071C5.68884 13.3804 5.79805 13.5298 5.95024 13.6228C6.10242 13.7157 6.28522 13.7447 6.4587 13.7033C6.63218 13.662 6.78224 13.5536 6.8761 13.402L11.8261 5.302Z" fill="#1D1C1D" fill-opacity="0.7"/>
</svg>
