<svg width="40" height="40" viewBox="0 0 40 40" fill="none" xmlns="http://www.w3.org/2000/svg">
<path d="M8.43323 25.2677C8.43323 27.5908 6.55566 29.4683 4.23257 29.4683C1.90949 29.4683 0.0319214 27.5908 0.0319214 25.2677C0.0319214 22.9446 1.90949 21.067 4.23257 21.067H8.43323V25.2677ZM10.5336 25.2677C10.5336 22.9446 12.4111 21.067 14.7342 21.067C17.0573 21.067 18.9349 22.9446 18.9349 25.2677V35.7693C18.9349 38.0924 17.0573 39.97 14.7342 39.97C12.4111 39.97 10.5336 38.0924 10.5336 35.7693V25.2677Z" fill="#E01E5A"/>
<path d="M14.7341 8.40131C12.411 8.40131 10.5335 6.52374 10.5335 4.20065C10.5335 1.87756 12.411 0 14.7341 0C17.0572 0 18.9348 1.87756 18.9348 4.20065V8.40131H14.7341ZM14.7341 10.5335C17.0572 10.5335 18.9348 12.411 18.9348 14.7341C18.9348 17.0572 17.0572 18.9348 14.7341 18.9348H4.20065C1.87756 18.9348 0 17.0572 0 14.7341C0 12.411 1.87756 10.5335 4.20065 10.5335H14.7341Z" fill="#36C5F0"/>
<path d="M31.5686 14.7341C31.5686 12.411 33.4462 10.5335 35.7693 10.5335C38.0924 10.5335 39.97 12.411 39.97 14.7341C39.97 17.0572 38.0924 18.9348 35.7693 18.9348H31.5686V14.7341ZM29.4683 14.7341C29.4683 17.0572 27.5908 18.9348 25.2677 18.9348C22.9446 18.9348 21.067 17.0572 21.067 14.7341V4.20065C21.067 1.87756 22.9446 0 25.2677 0C27.5908 0 29.4683 1.87756 29.4683 4.20065V14.7341Z" fill="#2EB67D"/>
<path d="M25.2677 31.5686C27.5908 31.5686 29.4683 33.4462 29.4683 35.7693C29.4683 38.0924 27.5908 39.97 25.2677 39.97C22.9446 39.97 21.067 38.0924 21.067 35.7693V31.5686H25.2677ZM25.2677 29.4683C22.9446 29.4683 21.067 27.5908 21.067 25.2677C21.067 22.9446 22.9446 21.067 25.2677 21.067H35.8011C38.1242 21.067 40.0018 22.9446 40.0018 25.2677C40.0018 27.5908 38.1242 29.4683 35.8011 29.4683H25.2677Z" fill="#ECB22E"/>
</svg>
