<svg width="20" height="20" viewBox="0 0 20 20" fill="none" xmlns="http://www.w3.org/2000/svg">
<rect width="20" height="20" fill="white"/>
<path d="M0.000585929 10.5571C0.421643 10.5591 0.829419 10.5813 1.23837 10.6368C1.47155 11.3764 1.93694 11.9031 2.67398 12.156C3.4081 12.408 4.09378 12.2761 4.73533 11.8279C5.97487 12.5527 7.00446 13.509 7.81591 14.699C8.90918 16.3022 9.43687 18.1331 9.44292 19.9919C9.41929 19.9943 9.39468 19.9992 9.37007 19.9992C7.34896 19.9994 5.32785 20.0015 3.30674 19.9984C2.00685 19.9964 0.875704 19.225 0.340009 18.1331C0.223808 17.896 0.140027 17.6476 0.0790947 17.3906C0.0228496 17.1531 0.00117181 16.9125 0.00097652 16.6695C0.000195338 14.6582 0.000585929 12.6468 0.000585929 10.6354C0.000585929 10.6128 0.000585929 10.5903 0.000585929 10.5573V10.5571Z" fill="#E01E59"/>
<path d="M10.5606 19.9992C10.5252 16.7518 12.3137 13.5128 15.2688 11.8313C15.3318 11.8717 15.3965 11.9145 15.4625 11.9551C15.764 12.1406 16.0917 12.2426 16.445 12.2687C17.0336 12.3121 17.557 12.1447 18.0128 11.7762C18.3597 11.4958 18.6026 11.1389 18.7319 10.7093C18.7477 10.657 18.7704 10.6284 18.8311 10.6249C19.204 10.603 19.5766 10.5771 19.9494 10.5529C19.9619 10.5521 19.9744 10.5552 19.9928 10.5573C19.9949 10.5808 19.9988 10.6025 19.9988 10.6241C19.9988 12.6484 20.0023 14.6727 19.997 16.6969C19.9951 17.4492 19.7551 18.1271 19.2899 18.719C18.7823 19.3651 18.1199 19.768 17.3164 19.9363C17.1069 19.9802 16.8936 19.9996 16.679 19.9996C14.6645 19.9992 12.65 19.9994 10.6356 19.9996C10.6129 19.9996 10.5905 19.9996 10.5608 19.9996L10.5606 19.9992Z" fill="#EDB22E"/>
<path d="M19.9992 9.44583C19.7903 9.43919 19.5924 9.43744 19.3952 9.42552C19.1942 9.41341 18.9941 9.38842 18.7931 9.37533C18.73 9.37123 18.7124 9.33471 18.6949 9.28745C18.5568 8.91677 18.3365 8.60332 18.0324 8.3508C17.694 8.06957 17.3069 7.90025 16.8681 7.84986C16.3406 7.78932 15.8551 7.90533 15.408 8.1889C15.3916 8.19925 15.3747 8.20882 15.3508 8.22308C13.9195 7.40107 12.7684 6.28729 11.9103 4.87393C10.8502 3.12836 10.545 1.32479 10.5606 0.00575014C10.5884 0.00399246 10.6165 0.000867708 10.6446 0.000867708C12.6493 0.000672411 14.654 -0.00206175 16.6587 0.00184419C17.5762 0.00360187 18.3668 0.331897 19.0198 0.975401C19.4977 1.44646 19.8028 2.01809 19.9323 2.67624C19.975 2.89361 19.9959 3.11879 19.9963 3.34026C20.001 5.34498 19.9991 7.34971 19.9991 9.35443V9.44564L19.9992 9.44583ZM16.2414 4.5427C16.1578 4.54817 16.0049 4.55071 15.8537 4.56946C15.3237 4.63488 14.8907 5.1368 14.9167 5.69671C14.9337 6.06309 15.0864 6.35037 15.3778 6.56676C15.5776 6.71519 15.8047 6.781 16.0525 6.7771C16.3025 6.77339 16.5519 6.76304 16.7999 6.81401C17.2141 6.89896 17.6088 7.01887 17.9315 7.31495C18.1018 7.47118 18.3178 7.54247 18.5459 7.55575C18.8919 7.57606 19.187 7.4579 19.4302 7.20616C19.8364 6.78569 19.8442 6.07325 19.387 5.63695C19.1651 5.42525 18.9142 5.25163 18.6412 5.11063C17.9102 4.73292 17.1321 4.54876 16.2414 4.5427Z" fill="#2EB57D"/>
<path d="M4.65443 8.22178C3.3233 7.33982 1.7168 8.05363 1.27934 9.35451C0.864139 9.42345 0.440153 9.43595 0.00835515 9.44435C0.00581631 9.41954 0.00112922 9.39474 0.00112922 9.37013C0.000933929 7.34568 -0.0021908 5.32143 0.00288688 3.29697C0.00483984 2.53395 0.254818 1.85099 0.730753 1.25553C1.23461 0.624917 1.88827 0.228659 2.67785 0.0671477C2.89267 0.0232058 3.11609 0.00406671 3.3356 0.00348082C5.3405 -0.00101101 7.34521 0.000941958 9.35011 0.000746661C9.37882 0.000746661 9.40753 0.000746661 9.44307 0.000746661C9.43936 1.52133 9.10228 2.95403 8.40918 4.29885C7.54461 5.97665 6.28378 7.27772 4.65424 8.22159L4.65443 8.22178ZM3.72854 4.74295C3.50024 4.76463 3.25709 4.77811 3.01688 4.81248C2.64035 4.86638 2.27359 4.96403 1.91795 5.10093C1.44378 5.28373 1.00456 5.52551 0.637011 5.88193C0.322781 6.18659 0.207947 6.55512 0.314188 6.98419C0.509288 7.77162 1.50803 8.0843 2.11227 7.54274C2.30268 7.37205 2.51595 7.25038 2.75401 7.16562C2.96806 7.08945 3.18542 7.02793 3.41333 7.01114C3.55179 7.00098 3.69221 6.97188 3.82833 6.98516C4.42867 7.04414 5.01495 6.64144 5.0792 5.96376C5.13115 5.41595 4.73978 4.88747 4.19842 4.78768C4.04902 4.76014 3.89512 4.7578 3.72815 4.74256L3.72854 4.74295Z" fill="#36C4F0"/>
<path d="M9.98992 12.1971C9.74346 12.1807 9.49543 12.1766 9.25112 12.1445C9.03219 12.1158 8.81561 12.0637 8.60117 12.0092C7.97291 11.8496 7.4005 11.5708 6.88043 11.1847C6.67107 11.0292 6.59979 10.8136 6.6447 10.5661C6.70056 10.258 7.04506 10.0576 7.35128 10.1289C7.45323 10.1527 7.53896 10.1955 7.62001 10.2548C7.94732 10.4953 8.30647 10.6724 8.6912 10.8009C8.90661 10.8728 9.12574 10.9245 9.35052 10.9564C9.696 11.0054 10.0419 11.0134 10.3889 10.981C11.1285 10.9118 11.8056 10.6712 12.4069 10.2332C12.701 10.0189 13.1102 10.107 13.2797 10.3947C13.4318 10.6529 13.3763 11.0024 13.1144 11.1893C12.884 11.3538 12.6442 11.5022 12.3909 11.6288C11.9558 11.8463 11.4982 11.9973 11.0213 12.0904C10.6809 12.157 10.3372 12.1897 9.98972 12.1973L9.98992 12.1971Z" fill="#3E103E"/>
<path d="M3.37531 11.6089C2.53144 11.621 1.80494 10.8728 1.83384 10.0192C1.84829 9.59265 2.00961 9.23721 2.30646 8.9425C2.60975 8.64136 2.9855 8.48844 3.40988 8.50289C4.32151 8.53414 4.95369 9.22764 4.93962 10.0819C4.92478 10.9828 4.19574 11.6177 3.37531 11.6089ZM3.98131 9.99965C4.26175 10.0112 4.54747 9.79888 4.55118 9.45633C4.5547 9.13409 4.33518 8.89036 3.97369 8.89173C3.70458 8.8927 3.45362 9.12042 3.44464 9.43485C3.43565 9.75162 3.71649 10.0045 3.98131 9.99965Z" fill="#3E103E"/>
<path d="M16.5947 11.6089C15.7412 11.621 15.0222 10.8552 15.0548 10.0041C15.086 9.19267 15.7555 8.48198 16.6298 8.50366C17.5309 8.52612 18.1791 9.2118 18.1602 10.1014C18.1416 10.9703 17.4284 11.6188 16.5947 11.6091V11.6089ZM17.2042 9.99963C17.4854 10.0098 17.7739 9.79652 17.7715 9.453C17.7692 9.11845 17.5508 8.89074 17.1931 8.89191C16.9269 8.89288 16.6738 9.11904 16.6656 9.43659C16.6574 9.75297 16.9392 10.0057 17.2042 9.99963Z" fill="#3E103E"/>
<path d="M10.003 14.1882C9.67376 14.1978 9.35269 14.1404 9.03221 14.0795C8.92812 14.0597 8.82383 14.0341 8.72462 13.9978C8.50706 13.9183 8.34985 13.7689 8.30767 13.5379C8.25494 13.2485 8.4059 12.9461 8.73126 12.8538C8.84609 12.8212 8.96093 12.8231 9.07518 12.8585C9.33218 12.9377 9.59388 12.979 9.86358 12.9916C10.2251 13.0086 10.5758 12.9645 10.9199 12.8598C11.2478 12.7602 11.6158 12.9319 11.6929 13.3199C11.7285 13.499 11.6843 13.6687 11.5515 13.8146C11.4275 13.9508 11.2719 14.0049 11.1029 14.0424C10.8737 14.0933 10.6461 14.1521 10.4094 14.1615C10.2737 14.1668 10.1384 14.1793 10.003 14.1886V14.1882Z" fill="#E8E8E8"/>
<path d="M16.2413 4.54272C17.1323 4.54878 17.9101 4.73294 18.6411 5.11065C18.9139 5.25165 19.1649 5.42527 19.3869 5.63698C19.8441 6.07307 19.8361 6.78552 19.4301 7.20619C19.187 7.45793 18.8919 7.57608 18.5458 7.55577C18.3177 7.5423 18.1017 7.47121 17.9314 7.31497C17.609 7.01909 17.2141 6.89899 16.7999 6.81403C16.5518 6.76306 16.3025 6.77341 16.0525 6.77712C15.8046 6.78083 15.5775 6.71502 15.3777 6.56679C15.0864 6.3504 14.9336 6.06311 14.9166 5.69674C14.8907 5.13682 15.3236 4.6349 15.8537 4.56948C16.0046 4.55093 16.1577 4.54819 16.2413 4.54272Z" fill="#3E103E"/>
<path d="M3.72843 4.74292C3.89541 4.75815 4.0493 4.7605 4.19871 4.78803C4.74006 4.88783 5.13144 5.4165 5.07949 5.96411C5.01524 6.6416 4.42896 7.0445 3.82862 6.98552C3.6925 6.97204 3.55208 7.00134 3.41362 7.01149C3.18571 7.02829 2.96815 7.08981 2.7543 7.16597C2.51643 7.25073 2.30317 7.3724 2.11256 7.54309C1.50832 8.08465 0.509577 7.77198 0.314477 6.98454C0.208236 6.55528 0.32307 6.18695 0.6373 5.88228C1.00465 5.52587 1.44387 5.28409 1.91824 5.10129C2.27368 4.96419 2.64044 4.86674 3.01717 4.81284C3.25738 4.77846 3.50033 4.76499 3.72882 4.74331L3.72843 4.74292Z" fill="#3E103E"/>
<path d="M3.98171 9.99953C3.71689 10.0046 3.43605 9.7517 3.44503 9.43473C3.45402 9.1201 3.70497 8.89258 3.97409 8.89161C4.33558 8.89024 4.55509 9.13397 4.55158 9.45621C4.54787 9.79876 4.26215 10.0111 3.98171 9.99953Z" fill="white"/>
<path d="M17.2043 9.99958C16.9395 10.0056 16.6577 9.75292 16.6657 9.43653C16.6739 9.11918 16.927 8.89283 17.1932 8.89185C17.551 8.89068 17.7693 9.1184 17.7717 9.45294C17.774 9.79647 17.4855 10.0097 17.2043 9.99958Z" fill="white"/>
</svg>
