<svg width="32" height="31" viewBox="0 0 32 31" fill="none" xmlns="http://www.w3.org/2000/svg">
<path d="M28.4851 26.0653C29.1096 24.3615 29.9301 21.1502 29.9301 16.0373C29.9301 14.4988 29.6628 10.7402 29.6628 10.7402C29.6628 10.7402 24.8512 9.65796 16.03 9.65796C7.20881 9.65796 2.12996 10.7402 2.12996 10.7402L2.12994 16.0373C2.12994 21.251 2.9831 24.4577 3.61166 26.1127C3.97544 27.0706 4.72575 27.791 5.70887 28.0796C7.30551 28.5483 10.4285 29.1388 16.03 29.1388C21.4821 29.1388 24.5861 28.6051 26.2201 28.1642C27.2878 27.8762 28.1045 27.1036 28.4851 26.0653Z" fill="#4AB9FD" fill-opacity="0.1"/>
<path d="M29.9301 16.4467C29.9301 19.6188 29.7618 22.1179 29.5588 23.9787C29.2726 26.6016 27.2896 28.5367 24.6629 28.7854C22.6376 28.9771 19.8094 29.1388 16.03 29.1388C12.2506 29.1388 9.42244 28.9771 7.39717 28.7854C4.77042 28.5367 2.7874 26.6016 2.50122 23.9787C2.2982 22.1179 2.12994 19.6188 2.12994 16.4467C2.12994 14.2662 2.20945 12.3598 2.3251 10.7402C2.37829 9.99531 2.43913 9.31108 2.50339 8.68873C2.794 5.87446 4.93772 3.76311 7.75523 3.50569C9.79585 3.31925 12.5413 3.16431 16.03 3.16431C19.5188 3.16431 22.2642 3.31925 24.3048 3.50569C27.1223 3.76311 29.266 5.87446 29.5566 8.68873C29.6209 9.31108 29.6817 9.99531 29.7349 10.7402C29.8506 12.3598 29.9301 14.2662 29.9301 16.4467Z" fill="#4AB9FD" fill-opacity="0.1"/>
<path d="M29.7349 10.7402C29.6817 9.99531 29.6209 9.31108 29.5566 8.68873C29.266 5.87446 27.1223 3.76311 24.3048 3.50569C22.2642 3.31925 19.5188 3.16431 16.03 3.16431C12.5413 3.16431 9.79585 3.31925 7.75523 3.50569C4.93772 3.76311 2.794 5.87446 2.50339 8.68873C2.43913 9.31108 2.37829 9.99531 2.3251 10.7402M29.7349 10.7402C29.8506 12.3598 29.9301 14.2662 29.9301 16.4467C29.9301 19.6188 29.7618 22.1179 29.5588 23.9787C29.2726 26.6016 27.2896 28.5367 24.6629 28.7854C22.6376 28.9771 19.8094 29.1388 16.03 29.1388C12.2506 29.1388 9.42244 28.9771 7.39717 28.7854C4.77042 28.5367 2.7874 26.6016 2.50122 23.9787C2.2982 22.1179 2.12994 19.6188 2.12994 16.4467C2.12994 14.2662 2.20945 12.3598 2.3251 10.7402M29.7349 10.7402C29.7349 10.7402 24.5898 9.65793 16.03 9.65793C7.4702 9.65793 2.3251 10.7402 2.3251 10.7402" stroke="#4AB9FD" stroke-width="2" stroke-linecap="round" stroke-linejoin="round"/>
<path d="M8.58685 1C8.58685 1 8.54572 1.85679 8.54572 5.87022M23.4739 1C23.4739 1 23.515 1.85679 23.515 5.87022" stroke="#4AB9FD" stroke-width="2" stroke-linecap="round" stroke-linejoin="round"/>
<path d="M21.3758 18.8574H10.6835M21.3758 18.8574L17.0291 23.1865M21.3758 18.8574L17.0291 14.5283" stroke="#4AB9FD" stroke-width="2" stroke-linecap="round" stroke-linejoin="round"/>
</svg>
