<svg width="18" height="18" viewBox="0 0 18 18" fill="none" xmlns="http://www.w3.org/2000/svg">
<path fill-rule="evenodd" clip-rule="evenodd" d="M10.5487 3.45596C9.7297 3.15536 8.7235 3.13196 7.8172 3.35336C6.4582 3.71966 5.6761 5.02826 5.8696 6.18836C6.046 7.24586 7.1449 8.54996 10.3498 8.54996C10.3579 8.55012 10.366 8.55042 10.3741 8.55086H15.5248C15.7038 8.55086 15.8755 8.62198 16.0021 8.74857C16.1287 8.87515 16.1998 9.04684 16.1998 9.22586C16.1998 9.40489 16.1287 9.57657 16.0021 9.70316C15.8755 9.82975 15.7038 9.90086 15.5248 9.90086H2.4748C2.29578 9.90086 2.12409 9.82975 1.99751 9.70316C1.87092 9.57657 1.7998 9.40489 1.7998 9.22586C1.7998 9.04684 1.87092 8.87515 1.99751 8.74857C2.12409 8.62198 2.29578 8.55086 2.4748 8.55086H5.7688C5.0848 7.96676 4.6744 7.22966 4.5376 6.41156C4.2253 4.53596 5.4673 2.58386 7.4761 2.04836L7.4824 2.04656L7.4887 2.04476C8.6155 1.76846 9.9007 1.78196 11.0122 2.18876C12.139 2.60006 13.1155 3.43166 13.4764 4.77536C13.5183 4.94664 13.4916 5.12751 13.4018 5.2793C13.3121 5.43109 13.1666 5.54175 12.9963 5.58761C12.826 5.63347 12.6446 5.61088 12.4908 5.52468C12.337 5.43849 12.223 5.29552 12.1732 5.12636C11.9482 4.29386 11.3542 3.75116 10.5487 3.45596ZM13.2199 11.6586C13.1873 11.5739 13.1379 11.4967 13.0748 11.4316C13.0116 11.3664 12.936 11.3147 12.8524 11.2794C12.7688 11.2442 12.679 11.2261 12.5883 11.2263C12.4975 11.2266 12.4078 11.2451 12.3244 11.2808C12.241 11.3165 12.1657 11.3687 12.1029 11.4342C12.0401 11.4997 11.9911 11.5771 11.959 11.662C11.9268 11.7468 11.912 11.8372 11.9156 11.9279C11.9192 12.0185 11.941 12.1075 11.9797 12.1896C12.2254 12.7656 12.1471 13.2741 11.8627 13.6962C11.563 14.139 11.0005 14.5287 10.2247 14.7195C9.3346 14.9382 8.4328 14.868 7.4986 14.6079C6.6616 14.3739 6.0469 13.7664 5.8264 12.9474C5.77663 12.7782 5.66265 12.6352 5.50883 12.549C5.35501 12.4628 5.17356 12.4403 5.00331 12.4861C4.83305 12.532 4.68749 12.6426 4.59777 12.7944C4.50805 12.9462 4.48129 13.1271 4.5232 13.2984C4.8724 14.5953 5.8579 15.5511 7.1359 15.9084C8.2276 16.2126 9.3733 16.3188 10.5469 16.0299C11.5729 15.7779 12.4549 15.2298 12.9805 14.4522C13.5205 13.653 13.6492 12.6594 13.2199 11.6586Z" fill="#1D1C1D"/>
</svg>
