<svg width="60" height="29" viewBox="0 0 60 29" fill="none" xmlns="http://www.w3.org/2000/svg">
<g clip-path="url(#clip0_509_1129)">
<path d="M44.9106 0.5H14.4985C6.88724 0.5 0.717102 6.67012 0.717102 14.2814C0.717102 21.8926 6.88724 28.0627 14.4985 28.0627H44.9106C52.5219 28.0627 58.692 21.8926 58.692 14.2814C58.692 6.67012 52.5219 0.5 44.9106 0.5Z" fill="#020202" fill-opacity="0.2"/>
<path d="M14.3325 24.5045C19.9115 24.5045 24.4342 19.9266 24.4342 14.2796C24.4342 8.63253 19.9115 4.05469 14.3325 4.05469C8.75346 4.05469 4.23077 8.63253 4.23077 14.2796C4.23077 19.9266 8.75346 24.5045 14.3325 24.5045Z" fill="white"/>
</g>
<defs>
<clipPath id="clip0_509_1129">
<rect width="59" height="28" fill="white" transform="translate(0.488098 0.5)"/>
</clipPath>
</defs>
</svg>
