<svg width="33" height="32" viewBox="0 0 33 32" fill="none" xmlns="http://www.w3.org/2000/svg">
<path d="M14.4254 3.78792V18.3986L24.3158 26.7861C24.3158 26.7861 31.5331 19.5126 27.2562 11.3638C22.712 2.70565 14.4254 3.78792 14.4254 3.78792Z" fill="white" fill-opacity="0.09"/>
<path d="M2.12994 16.886C2.12994 9.65208 7.99417 3.78784 15.2281 3.78784C22.462 3.78784 28.3262 9.65207 28.3262 16.886V17.2053C28.3262 24.4392 22.462 30.3035 15.2281 30.3035C7.99417 30.3035 2.12994 24.4392 2.12994 17.2053V16.886Z" fill="white" fill-opacity="0.09" stroke="white" stroke-width="2" stroke-linecap="round" stroke-linejoin="round"/>
<path d="M14.4254 18.3984L18.1677 21.6453" stroke="white" stroke-width="2" stroke-linecap="round" stroke-linejoin="round"/>
<path d="M14.4254 18.3985V10.2815" stroke="white" stroke-width="2" stroke-linecap="round" stroke-linejoin="round"/>
<path d="M22.9807 2.1645C22.9807 2.1645 26.8821 1.78433 28.5942 3.51733C30.3064 5.25033 29.9309 9.19926 29.9309 9.19926" stroke="white" stroke-width="2" stroke-linecap="round" stroke-linejoin="round"/>
</svg>
