<svg width="18" height="18" viewBox="0 0 18 18" fill="none" xmlns="http://www.w3.org/2000/svg">
<g clip-path="url(#clip0_303_4370)">
<path fill-rule="evenodd" clip-rule="evenodd" d="M3.3751 4.04995C3.19608 4.04995 3.02439 4.12107 2.8978 4.24765C2.77121 4.37424 2.7001 4.54593 2.7001 4.72495V13.275C2.7001 13.6476 3.0025 13.95 3.3751 13.95H11.0251C11.2041 13.95 11.3758 13.8788 11.5024 13.7522C11.629 13.6257 11.7001 13.454 11.7001 13.275V10.944C11.7001 10.8256 11.7313 10.7093 11.7904 10.6067C11.8496 10.5042 11.9347 10.419 12.0372 10.3597C12.1397 10.3004 12.2559 10.2692 12.3743 10.269C12.4927 10.2689 12.6091 10.2999 12.7117 10.359L15.7501 12.1077V5.89225L12.7117 7.64185C12.609 7.70093 12.4926 7.73194 12.3741 7.73176C12.2556 7.73159 12.1393 7.70024 12.0368 7.64087C11.9343 7.58149 11.8492 7.49618 11.7901 7.39351C11.731 7.29084 11.7 7.17442 11.7001 7.05595V4.72495C11.7001 4.54593 11.629 4.37424 11.5024 4.24765C11.3758 4.12107 11.2041 4.04995 11.0251 4.04995H3.3751ZM1.3501 4.72495C1.3501 4.18789 1.56345 3.67282 1.94321 3.29306C2.32297 2.9133 2.83803 2.69995 3.3751 2.69995H11.0251C11.5622 2.69995 12.0772 2.9133 12.457 3.29306C12.8367 3.67282 13.0501 4.18789 13.0501 4.72495V5.88955L15.4135 4.52875C15.5845 4.43022 15.7785 4.37842 15.9759 4.37855C16.1732 4.37868 16.3671 4.43074 16.538 4.52951C16.7089 4.62827 16.8508 4.77026 16.9495 4.94121C17.0481 5.11216 17.1001 5.30607 17.1001 5.50345V12.4965C17.1001 12.6938 17.0481 12.8877 16.9495 13.0587C16.8508 13.2296 16.7089 13.3716 16.538 13.4704C16.3671 13.5692 16.1732 13.6212 15.9759 13.6214C15.7785 13.6215 15.5845 13.5697 15.4135 13.4712L13.0501 12.1104V13.275C13.0501 13.812 12.8367 14.3271 12.457 14.7068C12.0772 15.0866 11.5622 15.2999 11.0251 15.2999H3.3751C2.83803 15.2999 2.32297 15.0866 1.94321 14.7068C1.56345 14.3271 1.3501 13.812 1.3501 13.275V4.72495Z" fill="#1D1C1D" fill-opacity="0.7"/>
</g>
<defs>
<clipPath id="clip0_303_4370">
<rect width="18" height="18" fill="white"/>
</clipPath>
</defs>
</svg>
